<svg width="14" height="14" viewBox="0 0 14 14" version="1.1" xmlns="http://www.w3.org/2000/svg" xmlns:xlink="http://www.w3.org/1999/xlink">
<title>icon_delete_2</title>
<desc>Created using Figma</desc>
<g id="Canvas" transform="translate(-913 95)">
<g id="icon_delete_2">
<g id="Close">
<g id="Vector">
<use xlink:href="#path0_fill" transform="translate(913 -95)" fill="#C93259"/>
</g>
</g>
</g>
</g>
<defs>
<path id="path0_fill" fill-rule="evenodd" d="M 8.66388 7.00002L 13.6554 2.00851C 14.1149 1.54904 14.1149 0.804081 13.6554 0.344672C 13.1959 -0.114803 12.451 -0.114803 11.9916 0.344672L 6.99998 5.33625L 2.0084 0.344606C 1.54892 -0.114869 0.804032 -0.114869 0.344557 0.344606C -0.114852 0.804081 -0.114852 1.54904 0.344557 2.00844L 5.33614 6.99996L 0.344557 11.9915C -0.114852 12.451 -0.114852 13.196 0.344557 13.6554C 0.804032 14.1149 1.54892 14.1149 2.0084 13.6554L 6.99998 8.6638L 11.9916 13.6554C 12.451 14.1149 13.1959 14.1149 13.6554 13.6554C 14.1149 13.1959 14.1149 12.451 13.6554 11.9915L 8.66388 7.00002Z"/>
</defs>
</svg>
