<svg width="30" height="30" viewBox="0 0 30 30" version="1.1" xmlns="http://www.w3.org/2000/svg" xmlns:xlink="http://www.w3.org/1999/xlink">
<title>icon_vkontakte</title>
<desc>Created using Figma</desc>
<g id="Canvas" transform="translate(-679 -57)">
<g id="icon_vkontakte">
<g id="Vector">
<use xlink:href="#path0_fill" transform="translate(679 57)" fill="#4D76A1"/>
</g>
<g id="Vector">
<use xlink:href="#path1_fill" transform="translate(683.797 67.3895)" fill="#FFFFFF"/>
</g>
</g>
</g>
<defs>
<path id="path0_fill" d="M 15 30C 23.2843 30 30 23.2843 30 15C 30 6.71573 23.2843 0 15 0C 6.71573 0 0 6.71573 0 15C 0 23.2843 6.71573 30 15 30Z"/>
<path id="path1_fill" fill-rule="evenodd" d="M 9.63656 11.1893L 10.8139 11.1893C 10.8139 11.1893 11.1695 11.1503 11.3511 10.9545C 11.5182 10.7749 11.5128 10.4374 11.5128 10.4374C 11.5128 10.4374 11.4898 8.85768 12.223 8.62505C 12.9458 8.3959 13.8739 10.1518 14.8576 10.827C 15.6015 11.338 16.1667 11.2259 16.1667 11.2259L 18.7971 11.1893C 18.7971 11.1893 20.173 11.1046 19.5206 10.0227C 19.4671 9.93419 19.1406 9.2224 17.5649 7.75978C 15.9157 6.22898 16.1365 6.47658 18.1232 3.82863C 19.3332 2.216 19.8169 1.23147 19.6658 0.809802C 19.5217 0.408183 18.6318 0.514337 18.6318 0.514337L 15.6702 0.532787C 15.6702 0.532787 15.4507 0.502839 15.2878 0.600168C 15.1287 0.695626 15.0263 0.918095 15.0263 0.918095C 15.0263 0.918095 14.5576 2.166 13.9324 3.22727C 12.6137 5.46665 12.0864 5.58484 11.8709 5.4458C 11.3695 5.12172 11.4947 4.14388 11.4947 3.4492C 11.4947 1.27907 11.8238 0.374225 10.8537 0.139992C 10.5318 0.0621821 10.2949 0.0108434 9.47159 0.00255433C 8.41486 -0.00840862 7.52045 0.00576265 7.01401 0.2539C 6.6771 0.418879 6.4172 0.786539 6.57549 0.807663C 6.77122 0.833867 7.21455 0.927186 7.44959 1.24725C 7.75308 1.6601 7.74238 2.58741 7.74238 2.58741C 7.74238 2.58741 7.91672 5.14204 7.33515 5.45943C 6.93593 5.67709 6.38832 5.23269 5.21261 3.20106C 4.61018 2.16038 4.15535 1.01008 4.15535 1.01008C 4.15535 1.01008 4.06765 0.795095 3.91123 0.680118C 3.72138 0.540808 3.45613 0.496422 3.45613 0.496422L 0.641859 0.514871C 0.641859 0.514871 0.219384 0.526637 0.0642986 0.710334C -0.0736742 0.873708 0.0533355 1.21169 0.0533355 1.21169C 0.0533355 1.21169 2.25662 6.36642 4.75136 8.9641C 7.03888 11.3457 9.63656 11.1893 9.63656 11.1893Z"/>
</defs>
</svg>
