<svg width="30" height="30" viewBox="0 0 30 30" version="1.1" xmlns="http://www.w3.org/2000/svg" xmlns:xlink="http://www.w3.org/1999/xlink">
<title>icon_odnoklassniki</title>
<desc>Created using Figma</desc>
<g id="Canvas" transform="translate(-805 -56)">
<g id="icon_odnoklassniki">
<g id="Vector">
<use xlink:href="#path0_fill" transform="translate(817.413 63.2608)" fill="#ED822C"/>
</g>
<g id="Vector">
<use xlink:href="#path1_fill" transform="translate(805 56)" fill="#ED822C"/>
</g>
</g>
</g>
<defs>
<path id="path0_fill" d="M 2.60141 5.17105C 4.03374 5.16583 5.1745 4.01524 5.16928 2.57985C 5.16407 1.14384 4.02085 0.00122943 2.5879 1.80613e-06C 1.14299 -0.00153272 -0.01097 1.16225 7.85857e-05 2.61115C 0.0108203 4.04133 1.16448 5.17627 2.60141 5.17105Z"/>
<path id="path1_fill" d="M 15 0C 6.7157 0 0 6.71601 0 15C 0 23.284 6.7157 30 15 30C 23.2843 30 30 23.284 30 15C 30 6.71601 23.2843 0 15 0ZM 15.0215 4.56153C 17.9432 4.56951 20.2883 6.95939 20.2732 9.91335C 20.2585 12.7992 17.8751 15.1381 14.9583 15.1283C 12.0712 15.1185 9.70343 12.7249 9.72061 9.83325C 9.73688 6.90998 12.1059 4.55356 15.0215 4.56153ZM 20.9392 17.2042C 20.2932 17.8674 19.5155 18.3474 18.6519 18.6823C 17.8355 18.9987 16.9409 19.158 16.0551 19.2641C 16.1893 19.4096 16.2522 19.4811 16.3357 19.5646C 17.5375 20.7729 18.7452 21.975 19.943 23.1867C 20.3512 23.5998 20.4362 24.1117 20.2116 24.5914C 19.9663 25.1162 19.4161 25.4612 18.8762 25.424C 18.5343 25.4004 18.2676 25.2307 18.031 24.9922C 17.1238 24.0795 16.1994 23.183 15.3112 22.2531C 15.0519 21.9824 14.9279 22.034 14.6992 22.2691C 13.7868 23.2088 12.8593 24.1335 11.9267 25.0533C 11.5077 25.4664 11.0093 25.5413 10.5232 25.305C 10.0066 25.0551 9.67826 24.5276 9.70343 23.9969C 9.72123 23.6391 9.89739 23.3647 10.1435 23.1198C 11.3334 21.9324 12.5196 20.7413 13.7061 19.5511C 13.785 19.4722 13.858 19.3884 13.9725 19.2657C 12.3542 19.0966 10.8948 18.6982 9.64542 17.7213C 9.49013 17.5998 9.33023 17.4826 9.18905 17.3463C 8.64184 16.8212 8.58691 16.2193 9.01934 15.6C 9.38977 15.0697 10.0109 14.9279 10.657 15.2326C 10.7822 15.2913 10.9013 15.3655 11.0154 15.4441C 13.3436 17.044 16.5422 17.0879 18.8796 15.5156C 19.111 15.3388 19.3587 15.1934 19.6456 15.12C 20.203 14.9764 20.7235 15.1817 21.0224 15.6697C 21.3646 16.2273 21.3606 16.7712 20.9392 17.2042Z"/>
</defs>
</svg>
