<svg width="27" height="26" viewBox="0 0 27 26" version="1.1" xmlns="http://www.w3.org/2000/svg" xmlns:xlink="http://www.w3.org/1999/xlink">
<title>icon_basket_1</title>
<desc>Created using Figma</desc>
<g id="Canvas" transform="translate(-987 121)">
<g id="icon_basket_1">
<g id="Group">
<g id="Group">
<g id="Vector">
<use xlink:href="#path0_fill" transform="translate(987 -121)" fill="#4D4D4D"/>
</g>
</g>
</g>
<g id="Group">
<g id="Group">
<g id="Vector">
<use xlink:href="#path1_fill" transform="translate(999.656 -105.812)"/>
</g>
</g>
</g>
<g id="Group">
<g id="Group">
<g id="Vector">
<use xlink:href="#path1_fill" transform="translate(995.438 -105.812)"/>
</g>
</g>
</g>
<g id="Group">
<g id="Group">
<g id="Vector">
<use xlink:href="#path1_fill" transform="translate(1003.88 -105.812)"/>
</g>
</g>
</g>
</g>
</g>
<defs>
<path id="path0_fill" d="M 26.1562 6.75027L 21.6152 6.75027L 18.4731 0.466024C 18.2621 0.049211 17.7576 -0.117851 17.3407 0.0880235C 16.9239 0.297274 16.7552 0.803524 16.9627 1.22034L 19.7286 6.75027L 7.27144 6.75027L 10.0356 1.22202C 10.2448 0.805211 10.0744 0.298961 9.65756 0.089711C 9.24244 -0.116164 8.7345 0.0508985 8.52694 0.466024L 5.38481 6.75027L 0.84375 6.75027C 0.378 6.75027 0 7.12827 0 7.59402L 0 10.969C 0 11.4348 0.378 11.8128 0.84375 11.8128L 1.87313 11.8128L 5.08781 24.6732C 5.18231 25.0495 5.51981 25.3128 5.90625 25.3128L 21.0938 25.3128C 21.4802 25.3128 21.8177 25.0495 21.9122 24.6732L 25.1269 11.8128L 26.1562 11.8128C 26.622 11.8128 27 11.4348 27 10.969L 27 7.59402C 27 7.12827 26.622 6.75027 26.1562 6.75027ZM 20.4339 23.6253L 6.56606 23.6253L 3.61125 11.8128L 23.3888 11.8128L 20.4339 23.6253ZM 25.3125 10.1253L 1.6875 10.1253L 1.6875 8.43777L 25.3125 8.43777L 25.3125 10.1253Z"/>
<path id="path1_fill" d="M 0.84375 -4.89235e-07C 0.378 -4.89235e-07 0 0.378 0 0.84375L 0 5.90625C 0 6.372 0.378 6.75 0.84375 6.75C 1.3095 6.75 1.6875 6.372 1.6875 5.90625L 1.6875 0.84375C 1.6875 0.378 1.3095 -4.89235e-07 0.84375 -4.89235e-07Z"/>
</defs>
</svg>
