<svg width="12" height="12" viewBox="0 0 12 12" version="1.1" xmlns="http://www.w3.org/2000/svg" xmlns:xlink="http://www.w3.org/1999/xlink">
<title>icon_search_2</title>
<desc>Created using Figma</desc>
<g id="Canvas" transform="translate(-1049 88)">
<g id="icon_search_2">
<g id="Vector">
<use xlink:href="#path0_fill" transform="translate(1049 -88)" fill="#4D4D4D"/>
</g>
</g>
</g>
<defs>
<path id="path0_fill" d="M 11.7332 10.4279L 9.25969 7.9544C 9.85579 7.09389 10.154 6.13459 10.154 5.07701C 10.154 4.38952 10.0205 3.73201 9.7536 3.10464C 9.48684 2.47717 9.12622 1.93633 8.6719 1.482C 8.21757 1.02767 7.67681 0.667055 7.04946 0.400274C 6.42191 0.133416 5.76445 6.5867e-13 5.07696 6.5867e-13C 4.38952 6.5867e-13 3.73201 0.133416 3.10464 0.400274C 2.47717 0.667055 1.93633 1.02767 1.482 1.482C 1.02762 1.93633 0.667055 2.47727 0.400248 3.10464C 0.133416 3.73209 0 4.38952 0 5.07701C 0 5.76445 0.133416 6.42173 0.400248 7.04928C 0.66703 7.67666 1.02762 8.21742 1.482 8.67175C 1.93633 9.12623 2.47727 9.48669 3.10464 9.75362C 3.73209 10.0204 4.38952 10.1538 5.07696 10.1538C 6.13477 10.1538 7.09391 9.85559 7.95448 9.25954L 10.428 11.7258C 10.6011 11.9085 10.8172 11.9998 11.077 11.9998C 11.327 11.9998 11.5435 11.9085 11.726 11.7258C 11.9086 11.5432 12 11.3268 12 11.0768C 12.0001 10.8222 11.9111 10.6058 11.7332 10.4279ZM 7.35943 7.35923C 6.72723 7.99153 5.96647 8.30767 5.07696 8.30767C 4.1876 8.30767 3.42684 7.99146 2.79459 7.35923C 2.16234 6.72703 1.84623 5.96637 1.84623 5.07686C 1.84623 4.1875 2.16242 3.42661 2.79459 2.79449C 3.42671 2.16222 4.1876 1.84613 5.07696 1.84613C 5.96637 1.84613 6.72713 2.16234 7.35943 2.79449C 7.99173 3.42661 8.30784 4.1875 8.30784 5.07686C 8.30784 5.96637 7.99163 6.72703 7.35943 7.35923Z"/>
</defs>
</svg>
