<svg width="18" height="18" viewBox="0 0 18 18" version="1.1" xmlns="http://www.w3.org/2000/svg" xmlns:xlink="http://www.w3.org/1999/xlink">
<title>icon_call</title>
<desc>Created using Figma</desc>
<g id="Canvas" transform="translate(-992 28)">
<g id="icon_call">
<g id="Group">
<g id="Group">
<g id="Vector">
<use xlink:href="#path0_fill" transform="translate(992 -26.2718)" fill="#4D4D4D"/>
</g>
<g id="Vector">
<use xlink:href="#path1_fill" transform="translate(1000.91 -24.4041)" fill="#4D4D4D"/>
</g>
<g id="Vector">
<use xlink:href="#path2_fill" transform="translate(1001.09 -28)" fill="#4D4D4D"/>
</g>
</g>
</g>
</g>
</g>
<defs>
<path id="path0_fill" d="M 13.6849 10.1795C 13.0969 9.59888 12.3627 9.59888 11.7784 10.1795C 11.3326 10.6215 10.8869 11.0635 10.4486 11.5129C 10.3288 11.6366 10.2276 11.6628 10.0815 11.5804C 9.79312 11.423 9.48598 11.2957 9.20879 11.1234C 7.91652 10.3106 6.834 9.26551 5.8751 8.08936C 5.39939 7.50502 4.97613 6.87949 4.68021 6.17529C 4.62028 6.03295 4.63152 5.93931 4.74764 5.82319C 5.19338 5.39244 5.62788 4.95044 6.06613 4.50845C 6.67668 3.89415 6.67668 3.17497 6.06239 2.55692C 5.71403 2.20483 5.36568 1.86022 5.01733 1.50812C 4.65774 1.14853 4.3019 0.785198 3.93856 0.429354C 3.35048 -0.143741 2.61632 -0.143741 2.03199 0.4331C 1.5825 0.875095 1.15174 1.32833 0.694766 1.76283C 0.2715 2.16362 0.0579936 2.65431 0.0130449 3.22741C -0.0581238 4.16009 0.170365 5.04034 0.492497 5.89811C 1.15174 7.67358 2.1556 9.25053 3.37296 10.6964C 5.01733 12.6516 6.98009 14.1986 9.27621 15.3149C 10.31 15.8168 11.3813 16.2026 12.5462 16.2663C 13.3478 16.3112 14.0445 16.1089 14.6026 15.4834C 14.9847 15.0564 15.4155 14.6668 15.82 14.2586C 16.4193 13.6518 16.4231 12.9176 15.8275 12.3183C 15.1158 11.6028 14.4004 10.8912 13.6849 10.1795Z"/>
<path id="path1_fill" d="M 4.06036 5.32642L 5.44253 5.09044C 5.22528 3.82064 4.62597 2.6707 3.71576 1.75674C 2.75311 0.794093 1.53575 0.187286 0.194778 1.0646e-15L 1.46317e-07 1.38966C 1.03757 1.53575 1.98149 2.00396 2.72689 2.74936C 3.43108 3.45356 3.89181 4.34504 4.06036 5.32642Z"/>
<path id="path2_fill" d="M 6.0381 2.91417C 4.44243 1.31849 2.42348 0.310895 0.194777 0L -8.23035e-08 1.38966C 1.9253 1.65935 3.67081 2.53211 5.04923 3.90679C 6.35649 5.21404 7.21426 6.86591 7.52516 8.68258L 8.90733 8.4466C 8.54399 6.34151 7.55138 4.43119 6.0381 2.91417Z"/>
</defs>
</svg>
