<svg width="16" height="15" viewBox="0 0 16 15" version="1.1" xmlns="http://www.w3.org/2000/svg" xmlns:xlink="http://www.w3.org/1999/xlink">
<title>icon_calendar</title>
<desc>Created using Figma</desc>
<g id="Canvas" transform="translate(-911 15)">
<g id="icon_calendar">
<g id="Vector">
<use xlink:href="#path0_fill" transform="translate(911 -15)" fill="#7A7A7A"/>
<use xlink:href="#path1_fill" transform="translate(911 -15)" fill="#7A7A7A"/>
<use xlink:href="#path2_fill" transform="translate(911 -15)" fill="#7A7A7A"/>
<use xlink:href="#path3_fill" transform="translate(911 -15)" fill="#7A7A7A"/>
<use xlink:href="#path4_fill" transform="translate(911 -15)" fill="#7A7A7A"/>
<use xlink:href="#path5_fill" transform="translate(911 -15)" fill="#7A7A7A"/>
<use xlink:href="#path6_fill" transform="translate(911 -15)" fill="#7A7A7A"/>
<use xlink:href="#path7_fill" transform="translate(911 -15)" fill="#7A7A7A"/>
<use xlink:href="#path8_fill" transform="translate(911 -15)" fill="#7A7A7A"/>
<use xlink:href="#path9_fill" transform="translate(911 -15)" fill="#7A7A7A"/>
<use xlink:href="#path10_fill" transform="translate(911 -15)" fill="#7A7A7A"/>
<use xlink:href="#path11_fill" transform="translate(911 -15)" fill="#7A7A7A"/>
<use xlink:href="#path12_fill" transform="translate(911 -15)" fill="#7A7A7A"/>
<use xlink:href="#path13_fill" transform="translate(911 -15)" fill="#7A7A7A"/>
<use xlink:href="#path14_fill" transform="translate(911 -15)" fill="#7A7A7A"/>
<use xlink:href="#path15_fill" transform="translate(911 -15)" fill="#7A7A7A"/>
<use xlink:href="#path16_fill" transform="translate(911 -15)" fill="#7A7A7A"/>
<use xlink:href="#path17_fill" transform="translate(911 -15)" fill="#7A7A7A"/>
<use xlink:href="#path18_fill" transform="translate(911 -15)" fill="#7A7A7A"/>
<use xlink:href="#path19_fill" transform="translate(911 -15)" fill="#7A7A7A"/>
<use xlink:href="#path20_fill" transform="translate(911 -15)" fill="#7A7A7A"/>
<use xlink:href="#path21_fill" transform="translate(911 -15)" fill="#7A7A7A"/>
<use xlink:href="#path22_fill" transform="translate(911 -15)" fill="#7A7A7A"/>
<use xlink:href="#path23_fill" transform="translate(911 -15)" fill="#7A7A7A"/>
<use xlink:href="#path24_fill" transform="translate(911 -15)" fill="#7A7A7A"/>
<use xlink:href="#path25_fill" transform="translate(911 -15)" fill="#7A7A7A"/>
<use xlink:href="#path26_fill" transform="translate(911 -15)" fill="#7A7A7A"/>
<use xlink:href="#path27_fill" transform="translate(911 -15)" fill="#7A7A7A"/>
<use xlink:href="#path28_fill" transform="translate(911 -15)" fill="#7A7A7A"/>
<use xlink:href="#path29_fill" transform="translate(911 -15)" fill="#7A7A7A"/>
<use xlink:href="#path30_fill" transform="translate(911 -15)" fill="#7A7A7A"/>
<use xlink:href="#path31_fill" transform="translate(911 -15)" fill="#7A7A7A"/>
<use xlink:href="#path32_fill" transform="translate(911 -15)" fill="#7A7A7A"/>
<use xlink:href="#path33_fill" transform="translate(911 -15)" fill="#7A7A7A"/>
<use xlink:href="#path34_fill" transform="translate(911 -15)" fill="#7A7A7A"/>
<use xlink:href="#path35_fill" transform="translate(911 -15)" fill="#7A7A7A"/>
<use xlink:href="#path36_fill" transform="translate(911 -15)" fill="#7A7A7A"/>
<use xlink:href="#path37_fill" transform="translate(911 -15)" fill="#7A7A7A"/>
<use xlink:href="#path38_fill" transform="translate(911 -15)" fill="#7A7A7A"/>
<use xlink:href="#path39_fill" transform="translate(911 -15)" fill="#7A7A7A"/>
<use xlink:href="#path40_fill" transform="translate(911 -15)" fill="#7A7A7A"/>
<use xlink:href="#path41_fill" transform="translate(911 -15)" fill="#7A7A7A"/>
<use xlink:href="#path42_fill" transform="translate(911 -15)" fill="#7A7A7A"/>
<use xlink:href="#path43_fill" transform="translate(911 -15)" fill="#7A7A7A"/>
<use xlink:href="#path44_fill" transform="translate(911 -15)" fill="#7A7A7A"/>
<use xlink:href="#path45_fill" transform="translate(911 -15)" fill="#7A7A7A"/>
<use xlink:href="#path46_fill" transform="translate(911 -15)" fill="#7A7A7A"/>
<use xlink:href="#path47_fill" transform="translate(911 -15)" fill="#7A7A7A"/>
<use xlink:href="#path48_fill" transform="translate(911 -15)" fill="#7A7A7A"/>
<use xlink:href="#path49_fill" transform="translate(911 -15)" fill="#7A7A7A"/>
<use xlink:href="#path50_fill" transform="translate(911 -15)" fill="#7A7A7A"/>
<use xlink:href="#path51_fill" transform="translate(911 -15)" fill="#7A7A7A"/>
<use xlink:href="#path52_fill" transform="translate(911 -15)" fill="#7A7A7A"/>
<use xlink:href="#path53_fill" transform="translate(911 -15)" fill="#7A7A7A"/>
<use xlink:href="#path54_fill" transform="translate(911 -15)" fill="#7A7A7A"/>
<use xlink:href="#path55_fill" transform="translate(911 -15)" fill="#7A7A7A"/>
<use xlink:href="#path56_fill" transform="translate(911 -15)" fill="#7A7A7A"/>
<use xlink:href="#path57_fill" transform="translate(911 -15)" fill="#7A7A7A"/>
<use xlink:href="#path58_fill" transform="translate(911 -15)" fill="#7A7A7A"/>
<use xlink:href="#path59_fill" transform="translate(911 -15)" fill="#7A7A7A"/>
<use xlink:href="#path60_fill" transform="translate(911 -15)" fill="#7A7A7A"/>
<use xlink:href="#path61_fill" transform="translate(911 -15)" fill="#7A7A7A"/>
<use xlink:href="#path62_fill" transform="translate(911 -15)" fill="#7A7A7A"/>
<use xlink:href="#path63_fill" transform="translate(911 -15)" fill="#7A7A7A"/>
<use xlink:href="#path64_fill" transform="translate(911 -15)" fill="#7A7A7A"/>
<use xlink:href="#path65_fill" transform="translate(911 -15)" fill="#7A7A7A"/>
<use xlink:href="#path66_fill" transform="translate(911 -15)" fill="#7A7A7A"/>
<use xlink:href="#path67_fill" transform="translate(911 -15)" fill="#7A7A7A"/>
<use xlink:href="#path68_fill" transform="translate(911 -15)" fill="#7A7A7A"/>
<use xlink:href="#path69_fill" transform="translate(911 -15)" fill="#7A7A7A"/>
<use xlink:href="#path70_fill" transform="translate(911 -15)" fill="#7A7A7A"/>
<use xlink:href="#path71_fill" transform="translate(911 -15)" fill="#7A7A7A"/>
<use xlink:href="#path72_fill" transform="translate(911 -15)" fill="#7A7A7A"/>
<use xlink:href="#path73_fill" transform="translate(911 -15)" fill="#7A7A7A"/>
<use xlink:href="#path74_fill" transform="translate(911 -15)" fill="#7A7A7A"/>
<use xlink:href="#path75_fill" transform="translate(911 -15)" fill="#7A7A7A"/>
<use xlink:href="#path76_fill" transform="translate(911 -15)" fill="#7A7A7A"/>
<use xlink:href="#path77_fill" transform="translate(911 -15)" fill="#7A7A7A"/>
<use xlink:href="#path78_fill" transform="translate(911 -15)" fill="#7A7A7A"/>
<use xlink:href="#path79_fill" transform="translate(911 -15)" fill="#7A7A7A"/>
<use xlink:href="#path80_fill" transform="translate(911 -15)" fill="#7A7A7A"/>
<use xlink:href="#path81_fill" transform="translate(911 -15)" fill="#7A7A7A"/>
<use xlink:href="#path82_fill" transform="translate(911 -15)" fill="#7A7A7A"/>
<use xlink:href="#path83_fill" transform="translate(911 -15)" fill="#7A7A7A"/>
<use xlink:href="#path84_fill" transform="translate(911 -15)" fill="#7A7A7A"/>
<use xlink:href="#path85_fill" transform="translate(911 -15)" fill="#7A7A7A"/>
<use xlink:href="#path86_fill" transform="translate(911 -15)" fill="#7A7A7A"/>
<use xlink:href="#path87_fill" transform="translate(911 -15)" fill="#7A7A7A"/>
<use xlink:href="#path88_fill" transform="translate(911 -15)" fill="#7A7A7A"/>
<use xlink:href="#path89_fill" transform="translate(911 -15)" fill="#7A7A7A"/>
<use xlink:href="#path90_fill" transform="translate(911 -15)" fill="#7A7A7A"/>
<use xlink:href="#path91_fill" transform="translate(911 -15)" fill="#7A7A7A"/>
<use xlink:href="#path92_fill" transform="translate(911 -15)" fill="#7A7A7A"/>
<use xlink:href="#path93_fill" transform="translate(911 -15)" fill="#7A7A7A"/>
<use xlink:href="#path94_fill" transform="translate(911 -15)" fill="#7A7A7A"/>
<use xlink:href="#path95_fill" transform="translate(911 -15)" fill="#7A7A7A"/>
<use xlink:href="#path96_fill" transform="translate(911 -15)" fill="#7A7A7A"/>
<use xlink:href="#path97_fill" transform="translate(911 -15)" fill="#7A7A7A"/>
<use xlink:href="#path98_fill" transform="translate(911 -15)" fill="#7A7A7A"/>
</g>
</g>
</g>
<defs>
<path id="path0_fill" d="M 0 2L 1 2L 1 3L 0 3L 0 2Z"/>
<path id="path1_fill" d="M 0 3L 1 3L 1 4L 0 4L 0 3Z"/>
<path id="path2_fill" d="M 0 4L 1 4L 1 5L 0 5L 0 4Z"/>
<path id="path3_fill" d="M 0 5L 1 5L 1 6L 0 6L 0 5Z"/>
<path id="path4_fill" d="M 0 6L 1 6L 1 7L 0 7L 0 6Z"/>
<path id="path5_fill" d="M 0 7L 1 7L 1 8L 0 8L 0 7Z"/>
<path id="path6_fill" d="M 0 8L 1 8L 1 9L 0 9L 0 8Z"/>
<path id="path7_fill" d="M 0 9L 1 9L 1 10L 0 10L 0 9Z"/>
<path id="path8_fill" d="M 0 10L 1 10L 1 11L 0 11L 0 10Z"/>
<path id="path9_fill" d="M 0 11L 1 11L 1 12L 0 12L 0 11Z"/>
<path id="path10_fill" d="M 0 12L 1 12L 1 13L 0 13L 0 12Z"/>
<path id="path11_fill" d="M 0 13L 1 13L 1 14L 0 14L 0 13Z"/>
<path id="path12_fill" d="M 0 14L 1 14L 1 15L 0 15L 0 14Z"/>
<path id="path13_fill" d="M 1 14L 2 14L 2 15L 1 15L 1 14Z"/>
<path id="path14_fill" d="M 2 14L 3 14L 3 15L 2 15L 2 14Z"/>
<path id="path15_fill" d="M 3 14L 4 14L 4 15L 3 15L 3 14Z"/>
<path id="path16_fill" d="M 4 14L 5 14L 5 15L 4 15L 4 14Z"/>
<path id="path17_fill" d="M 5 14L 6 14L 6 15L 5 15L 5 14Z"/>
<path id="path18_fill" d="M 6 14L 7 14L 7 15L 6 15L 6 14Z"/>
<path id="path19_fill" d="M 7 14L 8 14L 8 15L 7 15L 7 14Z"/>
<path id="path20_fill" d="M 8 14L 9 14L 9 15L 8 15L 8 14Z"/>
<path id="path21_fill" d="M 9 14L 10 14L 10 15L 9 15L 9 14Z"/>
<path id="path22_fill" d="M 10 14L 11 14L 11 15L 10 15L 10 14Z"/>
<path id="path23_fill" d="M 11 14L 12 14L 12 15L 11 15L 11 14Z"/>
<path id="path24_fill" d="M 12 14L 13 14L 13 15L 12 15L 12 14Z"/>
<path id="path25_fill" d="M 13 14L 14 14L 14 15L 13 15L 13 14Z"/>
<path id="path26_fill" d="M 14 14L 15 14L 15 15L 14 15L 14 14Z"/>
<path id="path27_fill" d="M 15 14L 16 14L 16 15L 15 15L 15 14Z"/>
<path id="path28_fill" d="M 15 12L 16 12L 16 13L 15 13L 15 12Z"/>
<path id="path29_fill" d="M 15 13L 16 13L 16 14L 15 14L 15 13Z"/>
<path id="path30_fill" d="M 15 11L 16 11L 16 12L 15 12L 15 11Z"/>
<path id="path31_fill" d="M 15 10L 16 10L 16 11L 15 11L 15 10Z"/>
<path id="path32_fill" d="M 15 9L 16 9L 16 10L 15 10L 15 9Z"/>
<path id="path33_fill" d="M 15 8L 16 8L 16 9L 15 9L 15 8Z"/>
<path id="path34_fill" d="M 15 7L 16 7L 16 8L 15 8L 15 7Z"/>
<path id="path35_fill" d="M 15 6L 16 6L 16 7L 15 7L 15 6Z"/>
<path id="path36_fill" d="M 15 5L 16 5L 16 6L 15 6L 15 5Z"/>
<path id="path37_fill" d="M 15 4L 16 4L 16 5L 15 5L 15 4Z"/>
<path id="path38_fill" d="M 15 3L 16 3L 16 4L 15 4L 15 3Z"/>
<path id="path39_fill" d="M 15 2L 16 2L 16 3L 15 3L 15 2Z"/>
<path id="path40_fill" d="M 14 4L 15 4L 15 5L 14 5L 14 4Z"/>
<path id="path41_fill" d="M 13 4L 14 4L 14 5L 13 5L 13 4Z"/>
<path id="path42_fill" d="M 12 4L 13 4L 13 5L 12 5L 12 4Z"/>
<path id="path43_fill" d="M 11 4L 12 4L 12 5L 11 5L 11 4Z"/>
<path id="path44_fill" d="M 10 4L 11 4L 11 5L 10 5L 10 4Z"/>
<path id="path45_fill" d="M 9 4L 10 4L 10 5L 9 5L 9 4Z"/>
<path id="path46_fill" d="M 8 4L 9 4L 9 5L 8 5L 8 4Z"/>
<path id="path47_fill" d="M 7 4L 8 4L 8 5L 7 5L 7 4Z"/>
<path id="path48_fill" d="M 6 4L 7 4L 7 5L 6 5L 6 4Z"/>
<path id="path49_fill" d="M 5 4L 6 4L 6 5L 5 5L 5 4Z"/>
<path id="path50_fill" d="M 4 4L 5 4L 5 5L 4 5L 4 4Z"/>
<path id="path51_fill" d="M 3 4L 4 4L 4 5L 3 5L 3 4Z"/>
<path id="path52_fill" d="M 2 4L 3 4L 3 5L 2 5L 2 4Z"/>
<path id="path53_fill" d="M 1 4L 2 4L 2 5L 1 5L 1 4Z"/>
<path id="path54_fill" d="M 4 7L 5 7L 5 8L 4 8L 4 7Z"/>
<path id="path55_fill" d="M 5 7L 6 7L 6 8L 5 8L 5 7Z"/>
<path id="path56_fill" d="M 5 8L 6 8L 6 9L 5 9L 5 8Z"/>
<path id="path57_fill" d="M 4 8L 5 8L 5 9L 4 9L 4 8Z"/>
<path id="path58_fill" d="M 7 8L 8 8L 8 9L 7 9L 7 8Z"/>
<path id="path59_fill" d="M 8 8L 9 8L 9 9L 8 9L 8 8Z"/>
<path id="path60_fill" d="M 8 7L 9 7L 9 8L 8 8L 8 7Z"/>
<path id="path61_fill" d="M 7 7L 8 7L 8 8L 7 8L 7 7Z"/>
<path id="path62_fill" d="M 10 7L 11 7L 11 8L 10 8L 10 7Z"/>
<path id="path63_fill" d="M 11 7L 12 7L 12 8L 11 8L 11 7Z"/>
<path id="path64_fill" d="M 11 8L 12 8L 12 9L 11 9L 11 8Z"/>
<path id="path65_fill" d="M 10 8L 11 8L 11 9L 10 9L 10 8Z"/>
<path id="path66_fill" d="M 10 10L 11 10L 11 11L 10 11L 10 10Z"/>
<path id="path67_fill" d="M 11 10L 12 10L 12 11L 11 11L 11 10Z"/>
<path id="path68_fill" d="M 11 11L 12 11L 12 12L 11 12L 11 11Z"/>
<path id="path69_fill" d="M 10 11L 11 11L 11 12L 10 12L 10 11Z"/>
<path id="path70_fill" d="M 8 10L 9 10L 9 11L 8 11L 8 10Z"/>
<path id="path71_fill" d="M 7 10L 8 10L 8 11L 7 11L 7 10Z"/>
<path id="path72_fill" d="M 7 11L 8 11L 8 12L 7 12L 7 11Z"/>
<path id="path73_fill" d="M 8 11L 9 11L 9 12L 8 12L 8 11Z"/>
<path id="path74_fill" d="M 5 11L 6 11L 6 12L 5 12L 5 11Z"/>
<path id="path75_fill" d="M 4 11L 5 11L 5 12L 4 12L 4 11Z"/>
<path id="path76_fill" d="M 4 10L 5 10L 5 11L 4 11L 4 10Z"/>
<path id="path77_fill" d="M 5 10L 6 10L 6 11L 5 11L 5 10Z"/>
<path id="path78_fill" d="M 1 1L 2 1L 2 2L 1 2L 1 1Z"/>
<path id="path79_fill" d="M 0 1L 1 1L 1 2L 0 2L 0 1Z"/>
<path id="path80_fill" d="M 2 1L 3 1L 3 2L 2 2L 2 1Z"/>
<path id="path81_fill" d="M 3 1L 4 1L 4 2L 3 2L 3 1Z"/>
<path id="path82_fill" d="M 4 1L 5 1L 5 2L 4 2L 4 1Z"/>
<path id="path83_fill" d="M 5 1L 6 1L 6 2L 5 2L 5 1Z"/>
<path id="path84_fill" d="M 6 1L 7 1L 7 2L 6 2L 6 1Z"/>
<path id="path85_fill" d="M 7 1L 8 1L 8 2L 7 2L 7 1Z"/>
<path id="path86_fill" d="M 8 1L 9 1L 9 2L 8 2L 8 1Z"/>
<path id="path87_fill" d="M 9 1L 10 1L 10 2L 9 2L 9 1Z"/>
<path id="path88_fill" d="M 10 1L 11 1L 11 2L 10 2L 10 1Z"/>
<path id="path89_fill" d="M 11 1L 12 1L 12 2L 11 2L 11 1Z"/>
<path id="path90_fill" d="M 12 1L 13 1L 13 2L 12 2L 12 1Z"/>
<path id="path91_fill" d="M 13 1L 14 1L 14 2L 13 2L 13 1Z"/>
<path id="path92_fill" d="M 14 1L 15 1L 15 2L 14 2L 14 1Z"/>
<path id="path93_fill" d="M 14 1L 15 1L 15 2L 14 2L 14 1Z"/>
<path id="path94_fill" d="M 10 0L 11 0L 11 1L 10 1L 10 0Z"/>
<path id="path95_fill" d="M 10 2L 11 2L 11 3L 10 3L 10 2Z"/>
<path id="path96_fill" d="M 5 2L 6 2L 6 3L 5 3L 5 2Z"/>
<path id="path97_fill" d="M 5 0L 6 0L 6 1L 5 1L 5 0Z"/>
<path id="path98_fill" d="M 15 1L 16 1L 16 2L 15 2L 15 1Z"/>
</defs>
</svg>
