<svg width="3" height="5" viewBox="0 0 3 5" version="1.1" xmlns="http://www.w3.org/2000/svg" xmlns:xlink="http://www.w3.org/1999/xlink">
<title>icon_chit</title>
<desc>Created using Figma</desc>
<g id="Canvas" transform="translate(-1053 30)">
<g id="icon_chit">
<g id="Vector">
<use xlink:href="#path0_fill" transform="translate(1053 -30)" fill="#919191"/>
<use xlink:href="#path1_fill" transform="translate(1053 -30)" fill="#919191"/>
<use xlink:href="#path2_fill" transform="translate(1053 -30)" fill="#919191"/>
<use xlink:href="#path3_fill" transform="translate(1053 -30)" fill="#919191"/>
<use xlink:href="#path4_fill" transform="translate(1053 -30)" fill="#919191"/>
</g>
</g>
</g>
<defs>
<path id="path0_fill" d="M 2 2L 3 2L 3 3L 2 3L 2 2Z"/>
<path id="path1_fill" d="M 1 1L 2 1L 2 2L 1 2L 1 1Z"/>
<path id="path2_fill" d="M 0 0L 1 0L 1 1L 0 1L 0 0Z"/>
<path id="path3_fill" d="M 1 3L 2 3L 2 4L 1 4L 1 3Z"/>
<path id="path4_fill" d="M 0 4L 1 4L 1 5L 0 5L 0 4Z"/>
</defs>
</svg>
