<svg width="10" height="10" viewBox="0 0 10 10" version="1.1" xmlns="http://www.w3.org/2000/svg" xmlns:xlink="http://www.w3.org/1999/xlink">
<title>icon_serch_close</title>
<desc>Created using Figma</desc>
<g id="Canvas" transform="translate(-1050 62)">
<g id="icon_serch_close">
<g id="Vector">
<use xlink:href="#path0_fill" transform="translate(1050 -62)" fill="#7C7C7C"/>
</g>
</g>
</g>
<defs>
<path id="path0_fill" fill-rule="evenodd" d="M 6.18849 5.00002L 9.75385 1.43465C 10.082 1.10645 10.082 0.574344 9.75385 0.246194C 9.42566 -0.0820021 8.89359 -0.0820021 8.5654 0.246194L 4.99998 3.81161L 1.43457 0.246147C 1.10637 -0.0820491 0.574308 -0.0820491 0.246112 0.246147C -0.0820373 0.574344 -0.0820373 1.10645 0.246112 1.4346L 3.81153 4.99997L 0.246112 8.56539C -0.0820373 8.89358 -0.0820373 9.42569 0.246112 9.75384C 0.574308 10.082 1.10637 10.082 1.43457 9.75384L 4.99998 6.18843L 8.5654 9.75384C 8.89355 10.082 9.42566 10.082 9.75385 9.75384C 10.082 9.42565 10.082 8.89358 9.75385 8.56539L 6.18849 5.00002Z"/>
</defs>
</svg>
