<svg width="40" height="40" viewBox="0 0 40 40" version="1.1" xmlns="http://www.w3.org/2000/svg" xmlns:xlink="http://www.w3.org/1999/xlink">
<title>icon_up</title>
<desc>Created using Figma</desc>
<g id="Canvas" transform="translate(-899 -48)">
<g id="icon_up">
<g id="Vector">
<use xlink:href="#path0_fill" transform="translate(899 48)" fill="#C93259"/>
</g>
</g>
</g>
<defs>
<path id="path0_fill" d="M 20 0C 8.97164 0 0 8.97164 0 20C 0 31.0284 8.97164 40 20 40C 31.0284 40 40 31.0284 40 20C 40 8.97164 31.0284 0 20 0ZM 27.845 17.845C 27.52 18.17 27.0934 18.3334 26.6666 18.3334C 26.24 18.3334 25.8133 18.17 25.4883 17.845L 21.6666 14.0234L 21.6666 30C 21.6666 30.92 20.9216 31.6666 20 31.6666C 19.0784 31.6666 18.3334 30.92 18.3334 30L 18.3334 14.0234L 14.5117 17.845C 13.8601 18.4966 12.8067 18.4966 12.1551 17.845C 11.5034 17.1934 11.5034 16.14 12.1551 15.4884L 18.8201 8.82336C 18.9734 8.66836 19.1584 8.54672 19.3634 8.46172C 19.7701 8.29336 20.2301 8.29336 20.6368 8.46172C 20.8418 8.54672 21.0268 8.66836 21.1802 8.82336L 27.8452 15.4884C 28.4966 16.14 28.4966 17.1934 27.845 17.845Z"/>
</defs>
</svg>
