<svg width="44" height="44" viewBox="0 0 44 44" version="1.1" xmlns="http://www.w3.org/2000/svg" xmlns:xlink="http://www.w3.org/1999/xlink">
<title>icon_wallet_2</title>
<desc>Created using Figma</desc>
<g id="Canvas" transform="translate(-773 24)">
<g id="icon_wallet_2">
<g id="Vector">
<use xlink:href="#path0_fill" transform="translate(773 -24)" fill="#C93259"/>
</g>
<g id="Ellipse 5">
<use xlink:href="#path1_fill" transform="translate(805.12 -0.239998)" fill="#C93259"/>
</g>
</g>
</g>
<defs>
<path id="path0_fill" d="M 43.5294 20.497L 41.4197 20.497L 41.4197 10.786C 41.4197 8.45783 39.527 6.56381 37.2004 6.56381L 34.3431 6.56381L 31.4191 1.30301C 30.9734 0.499026 30.1253 0 29.2055 0C 28.7768 0 28.3515 0.110632 27.976 0.319151L 16.7542 6.56368L 4.21934 6.56368C 1.89275 6.56368 0 8.4577 0 10.7858L 0 39.7778C 0 42.106 1.89275 44 4.21934 44L 37.2004 44C 39.527 44 41.4197 42.106 41.4197 39.7778L 41.4197 31.2634L 43.5294 31.2634L 43.5294 20.497ZM 37.2004 8.25259C 38.4999 8.25259 39.5615 9.24053 39.7041 10.5047L 36.5328 10.5047L 35.2822 8.25259L 37.2004 8.25259ZM 28.797 1.79521C 29.1928 1.57316 29.7254 1.72846 29.9439 2.1229L 34.602 10.5039L 13.1458 10.5039L 28.797 1.79521ZM 39.7319 39.7778C 39.7319 41.1745 38.596 42.3112 37.2003 42.3112L 4.21934 42.3112C 2.82357 42.3112 1.68766 41.1745 1.68766 39.7778L 1.68766 10.786C 1.68766 9.38927 2.82357 8.25259 4.21934 8.25259L 13.7196 8.25259L 9.67241 10.5048L 4.74679 10.5048C 4.28013 10.5048 3.90289 10.8831 3.90289 11.3492C 3.90289 11.8154 4.28013 12.1937 4.74679 12.1937L 6.63705 12.1937L 37.4713 12.1937L 39.7319 12.1937L 39.7319 20.4978L 33.5608 20.4978C 30.6949 20.4978 28.3626 22.8318 28.3626 25.6995L 28.3626 26.0626C 28.3626 28.9304 30.695 31.2643 33.5608 31.2643L 39.7319 31.2643L 39.7319 39.7778ZM 41.8416 29.5746L 41.4197 29.5746L 33.5608 29.5746C 31.6249 29.5746 30.0502 27.999 30.0502 26.0617L 30.0502 25.6986C 30.0502 23.7614 31.6248 22.1857 33.5608 22.1857L 41.4197 22.1857L 41.8416 22.1857L 41.8416 29.5746ZM 36.1455 25.9495C 36.1455 26.9798 35.3117 27.814 34.2823 27.814C 33.2527 27.814 32.4191 26.9796 32.4191 25.9495C 32.4191 24.9194 33.2529 24.0851 34.2823 24.0851C 35.3118 24.0849 36.1455 24.9201 36.1455 25.9495Z"/>
<path id="path1_fill" d="M 4.4 2.2C 4.4 3.41503 3.41503 4.4 2.2 4.4C 0.984974 4.4 0 3.41503 0 2.2C 0 0.984974 0.984974 0 2.2 0C 3.41503 0 4.4 0.984974 4.4 2.2Z"/>
</defs>
</svg>
