<svg width="30" height="30" viewBox="0 0 30 30" version="1.1" xmlns="http://www.w3.org/2000/svg" xmlns:xlink="http://www.w3.org/1999/xlink">
<title>icon_twitter</title>
<desc>Created using Figma</desc>
<g id="Canvas" transform="translate(-763 -56)">
<g id="icon_twitter">
<g id="Vector">
<use xlink:href="#path0_fill" transform="translate(763 56)" fill="#55ACEE"/>
</g>
<g id="Vector">
<use xlink:href="#path1_fill" transform="translate(769.712 65.0987)" fill="#FFFFFF"/>
</g>
</g>
</g>
<defs>
<path id="path0_fill" d="M 15 30C 23.2843 30 30 23.2843 30 15C 30 6.71573 23.2843 0 15 0C 6.71573 0 0 6.71573 0 15C 0 23.2843 6.71573 30 15 30Z"/>
<path id="path1_fill" d="M 17.476 1.68134C 16.8332 1.96638 16.1418 2.15917 15.4166 2.24527C 16.157 1.80167 16.7252 1.09977 16.9934 0.262041C 16.3006 0.673018 15.5329 0.971158 14.7166 1.13186C 14.0625 0.43531 13.1307 -3.26403e-08 12.0988 -3.26403e-08C 10.1191 -3.26403e-08 8.5134 1.60567 8.5134 3.58542C 8.5134 3.86645 8.54522 4.13999 8.60672 4.40256C 5.62694 4.25309 2.98487 2.82577 1.21635 0.655905C 0.907786 1.18534 0.730775 1.80167 0.730775 2.45864C 0.730775 3.70227 1.36422 4.80017 2.32575 5.44297C 1.7383 5.42452 1.18507 5.26329 0.701897 4.99403C 0.701629 5.00927 0.701629 5.02451 0.701629 5.03948C 0.701629 6.77671 1.93804 8.2257 3.57794 8.55485C 3.27739 8.63721 2.96 8.68079 2.63352 8.68079C 2.40196 8.68079 2.17762 8.6586 1.95889 8.61688C 2.41506 10.041 3.7389 11.0777 5.30821 11.1068C 4.08089 12.0686 2.53512 12.6416 0.854843 12.6416C 0.566063 12.6416 0.279957 12.6248 1.71361e-07 12.5914C 1.58589 13.609 3.47098 14.2024 5.49565 14.2024C 12.0905 14.2024 15.6971 8.73908 15.6971 4.00068C 15.6971 3.84532 15.6936 3.69051 15.6867 3.53702C 16.3877 3.03166 16.9955 2.40035 17.476 1.68134Z"/>
</defs>
</svg>
