<svg width="16" height="16" viewBox="0 0 16 16" version="1.1" xmlns="http://www.w3.org/2000/svg" xmlns:xlink="http://www.w3.org/1999/xlink">
<title>icon_search_1</title>
<desc>Created using Figma</desc>
<g id="Canvas" transform="translate(-1047 116)">
<g id="icon_search_1">
<g id="Vector">
<use xlink:href="#path0_fill" transform="translate(1047 -116)" fill="#4D4D4D"/>
</g>
</g>
</g>
<defs>
<path id="path0_fill" d="M 15.6443 13.9038L 12.3463 10.6059C 13.1411 9.45852 13.5387 8.17945 13.5387 6.76935C 13.5387 5.8527 13.3607 4.97602 13.0048 4.13952C 12.6491 3.30289 12.1683 2.58177 11.5625 1.976C 10.9568 1.37023 10.2357 0.889407 9.39928 0.533698C 8.56254 0.177888 7.68593 8.78227e-13 6.76928 8.78227e-13C 5.8527 8.78227e-13 4.97602 0.177888 4.13952 0.533698C 3.30289 0.889407 2.58177 1.37023 1.976 1.976C 1.37016 2.58177 0.889407 3.30302 0.533665 4.13952C 0.177888 4.97612 0 5.8527 0 6.76935C 0 7.68593 0.177888 8.56231 0.533665 9.39904C 0.889374 10.2355 1.37016 10.9566 1.976 11.5623C 2.58177 12.1683 3.30302 12.6489 4.13952 13.0048C 4.97612 13.3606 5.8527 13.5384 6.76928 13.5384C 8.17969 13.5384 9.45855 13.1408 10.606 12.3461L 13.904 15.6344C 14.1348 15.878 14.4229 15.9998 14.7693 15.9998C 15.1026 15.9998 15.3913 15.878 15.6347 15.6344C 15.8782 15.3909 16 15.1024 16 14.7691C 16.0001 14.4296 15.8815 14.141 15.6443 13.9038ZM 9.81258 9.81231C 8.96965 10.6554 7.95529 11.0769 6.76928 11.0769C 5.58347 11.0769 4.56912 10.6553 3.72612 9.81231C 2.88312 8.96938 2.46164 7.95516 2.46164 6.76915C 2.46164 5.58334 2.88322 4.56882 3.72612 3.72599C 4.56895 2.88295 5.58347 2.4615 6.76928 2.4615C 7.95516 2.4615 8.96951 2.88312 9.81258 3.72599C 10.6556 4.56882 11.0771 5.58334 11.0771 6.76915C 11.0771 7.95516 10.6555 8.96938 9.81258 9.81231Z"/>
</defs>
</svg>
