<svg width="30" height="30" viewBox="0 0 30 30" version="1.1" xmlns="http://www.w3.org/2000/svg" xmlns:xlink="http://www.w3.org/1999/xlink">
<title>icon_instagram</title>
<desc>Created using Figma</desc>
<g id="Canvas" transform="translate(-637 -57)">
<g id="icon_instagram">
<g id="Vector">
<use xlink:href="#path0_fill" transform="translate(644.941 64.9815)" fill="#CC2699"/>
</g>
<g id="Vector">
<use xlink:href="#path1_fill" transform="translate(649.316 69.3569)" fill="#CC2699"/>
</g>
<g id="Vector">
<use xlink:href="#path2_fill" transform="translate(637 57)" fill="#CC2699"/>
</g>
</g>
</g>
<defs>
<path id="path0_fill" d="M 11.5297 -2.80499e-07L 2.58829 -2.80499e-07C 1.16112 -2.80499e-07 2.60099e-07 1.16112 2.60099e-07 2.58829L 2.60099e-07 11.5297C 2.60099e-07 12.9568 1.16112 14.1183 2.58829 14.1183L 11.5297 14.1183C 12.9568 14.1183 14.1183 12.9572 14.1183 11.5297L 14.1183 2.58829C 14.1183 1.16112 12.9572 -2.80499e-07 11.5297 -2.80499e-07ZM 7.05898 11.7068C 4.49642 11.7068 2.41148 9.62187 2.41148 7.05898C 2.41148 4.49642 4.49642 2.41148 7.05898 2.41148C 9.62187 2.41148 11.7068 4.49642 11.7068 7.05898C 11.7068 9.62154 9.62154 11.7068 7.05898 11.7068ZM 11.8562 3.3724C 11.2496 3.3724 10.7563 2.87907 10.7563 2.27278C 10.7563 1.66648 11.2496 1.17315 11.8562 1.17315C 12.4625 1.17315 12.9558 1.66648 12.9558 2.27278C 12.9558 2.87907 12.4625 3.3724 11.8562 3.3724Z"/>
<path id="path1_fill" d="M 2.68388 2.24399e-07C 1.20457 2.24399e-07 -3.26398e-07 1.2039 -3.26398e-07 2.68322C -3.26398e-07 4.16319 1.20457 5.36743 2.68388 5.36743C 4.16386 5.36743 5.36743 4.16319 5.36743 2.68322C 5.36743 1.20424 4.16353 2.24399e-07 2.68388 2.24399e-07Z"/>
<path id="path2_fill" d="M 15 0C 6.71606 0 0 6.71606 0 15C 0 23.2839 6.71606 30 15 30C 23.2839 30 30 23.2839 30 15C 30 6.71606 23.2839 0 15 0ZM 24.0229 19.5111C 24.0229 22.0215 21.9811 24.0634 19.4707 24.0634L 10.5293 24.0634C 8.01923 24.0634 5.97707 22.0215 5.97707 19.5111L 5.97707 10.5698C 5.97707 8.05967 8.01923 6.01751 10.5293 6.01751L 19.4707 6.01751C 21.9811 6.01751 24.0229 8.05967 24.0229 10.5698L 24.0229 19.5111Z"/>
</defs>
</svg>
