<svg width="64" height="64" viewBox="0 0 64 64" version="1.1" xmlns="http://www.w3.org/2000/svg" xmlns:xlink="http://www.w3.org/1999/xlink">
<title>icon_successfully</title>
<desc>Created using Figma</desc>
<g id="Canvas" transform="translate(-1048 -21)">
<g id="icon_successfully">
<g id="Vector">
<use xlink:href="#path0_fill" transform="translate(1048 21)" fill="#C93259"/>
<use xlink:href="#path1_fill" transform="translate(1048 21)" fill="#C93259"/>
</g>
</g>
</g>
<defs>
<path id="path0_fill" d="M 32 0C 14.3557 0 0 14.3545 0 32C 0 49.6455 14.3557 64 32 64C 49.6443 64 64 49.6455 64 32C 64 14.3545 49.6443 0 32 0ZM 32 61.5385C 15.7132 61.5385 2.46154 48.2868 2.46154 32C 2.46154 15.7132 15.7132 2.46154 32 2.46154C 48.2868 2.46154 61.5385 15.7132 61.5385 32C 61.5385 48.2868 48.2868 61.5385 32 61.5385Z"/>
<path id="path1_fill" d="M 47.0794 18.8751L 28.1637 40.1551L 16.768 31.0388C 16.2388 30.6142 15.4622 30.7015 15.0388 31.2308C 14.6142 31.7625 14.7003 32.5366 15.2308 32.9612L 27.5385 42.8074C 27.7649 42.9883 28.0369 43.0769 28.3077 43.0769C 28.6474 43.0769 28.9858 42.9366 29.2283 42.6634L 48.9206 20.5095C 49.3723 20.0025 49.3268 19.2234 48.8185 18.7729C 48.3089 18.32 47.5323 18.3655 47.0794 18.8751Z"/>
</defs>
</svg>
