<svg width="55" height="37" viewBox="0 0 55 37" version="1.1" xmlns="http://www.w3.org/2000/svg" xmlns:xlink="http://www.w3.org/1999/xlink">
<title>icon_card_2</title>
<desc>Created using Figma</desc>
<g id="Canvas" transform="translate(-679 19)">
<g id="icon_card_2">
<g id="Vector">
<use xlink:href="#path0_fill" transform="translate(686.682 4.49431)" fill="#C93259"/>
</g>
<g id="Vector">
<use xlink:href="#path0_fill" transform="translate(686.682 8.6989)" fill="#C93259"/>
</g>
<g id="Vector">
<use xlink:href="#path1_fill" transform="translate(679 -19)" fill="#C93259"/>
</g>
<g id="Vector">
<use xlink:href="#path2_fill" transform="translate(708.196 2.00035)" fill="#C93259"/>
</g>
</g>
</g>
<defs>
<path id="path0_fill" d="M 0.911377 1.78365L 11.224 1.78365C 11.7276 1.78365 12.1355 1.38456 12.1355 0.891868C 12.1355 0.399094 11.7276 4.62336e-08 11.224 4.62336e-08L 0.911377 4.62336e-08C 0.407864 4.62336e-08 -3.09576e-08 0.399094 -3.09576e-08 0.891868C -3.09576e-08 1.38456 0.407864 1.78365 0.911377 1.78365Z"/>
<path id="path1_fill" d="M 52.4009 0L 2.59827 0C 1.16576 0 -5.48994e-12 1.15818 -5.48994e-12 2.58193L -5.48994e-12 34.4177C -5.48994e-12 35.8418 1.16575 37 2.59827 37L 52.4009 37C 53.8342 37 55 35.8418 55 34.4177L 55 2.58193C 55 1.15818 53.8342 0 52.4009 0ZM 53.2812 34.4177C 53.2812 34.8996 52.8859 35.2923 52.4009 35.2923L 2.59827 35.2923C 2.11323 35.2923 1.71877 34.8996 1.71877 34.4177L 1.71877 15.0886L 53.2812 15.0886L 53.2812 34.4177ZM 53.2812 13.3726L 1.71877 13.3726L 1.71877 8.25781L 53.2812 8.25781L 53.2812 13.3726ZM 53.2812 6.54185L 1.71877 6.54185L 1.71877 2.58193C 1.71877 2.1 2.11323 1.70772 2.59827 1.70772L 52.4009 1.70772C 52.8859 1.70772 53.2812 2.1 53.2812 2.58193L 53.2812 6.54185Z"/>
<path id="path2_fill" d="M 5.17891 10.1352C 6.96634 10.1352 8.54478 9.2447 9.47583 7.89336C 10.407 9.2447 11.9853 10.1352 13.7728 10.1352C 16.6287 10.1352 18.9517 7.86216 18.9517 5.06766C 18.9517 2.27306 16.6287 -7.06643e-08 13.7728 -7.06643e-08C 11.9853 -7.06643e-08 10.407 0.890521 9.47583 2.24186C 8.54478 0.890521 6.96634 -7.06643e-08 5.17891 -7.06643e-08C 2.32301 -7.06643e-08 -2.46737e-08 2.27306 -2.46737e-08 5.06766C -2.46737e-08 7.86216 2.32301 10.1352 5.17891 10.1352ZM 13.7728 1.72613C 15.656 1.72613 17.1877 3.2248 17.1877 5.06766C 17.1877 6.91042 15.656 8.40909 13.7728 8.40909C 11.8895 8.40909 10.3579 6.91042 10.3579 5.06766C 10.3579 3.2248 11.8895 1.72613 13.7728 1.72613ZM 5.17891 1.72613C 7.06216 1.72613 8.59384 3.2248 8.59384 5.06766C 8.59384 6.91042 7.06216 8.40909 5.17891 8.40909C 3.29565 8.40909 1.76406 6.91042 1.76406 5.06766C 1.76406 3.2248 3.29565 1.72613 5.17891 1.72613Z"/>
</defs>
</svg>
