<svg width="17" height="16" viewBox="0 0 17 16" version="1.1" xmlns="http://www.w3.org/2000/svg" xmlns:xlink="http://www.w3.org/1999/xlink">
<title>icon_time</title>
<desc>Created using Figma</desc>
<g id="Canvas" transform="translate(-939 15)">
<g id="icon_time">
<g id="Vector">
<use xlink:href="#path0_fill" transform="translate(939 -15)" fill="#7A7A7A"/>
</g>
<g id="Vector">
<use xlink:href="#path1_fill" transform="translate(946.51 -12.1029)" fill="#7A7A7A"/>
</g>
</g>
</g>
<defs>
<path id="path0_fill" d="M 15.3698 4.88407C 14.5258 2.91632 13.0915 1.48523 11.1074 0.638991C 10.1156 0.21604 9.07667 -5.92476e-11 7.99124 -5.92476e-11C 6.90599 -5.92476e-11 5.87468 0.214 4.88407 0.638991C 2.91632 1.48298 1.47571 2.91315 0.630202 4.88407C 0.206519 5.87148 0 6.90596 0 7.99121C 0 9.07667 0.206519 10.1197 0.630202 11.1074C 1.47571 13.0783 2.9165 14.517 4.88407 15.3612C 5.87486 15.7862 6.90596 16 7.99124 16C 9.07651 16 10.1156 15.784 11.1072 15.3612C 13.0914 14.5149 14.5256 13.0749 15.3698 11.1074C 15.7948 10.1166 16.0088 9.07667 16.0088 7.99121C 16.0088 6.90596 15.795 5.87483 15.3698 4.88407ZM 14.092 11.5275C 13.4637 12.6051 12.6029 13.46 11.5187 14.092C 10.4411 14.7204 9.26043 15.0372 7.99142 15.0372C 7.03743 15.0372 6.12713 14.8535 5.26051 14.4771C 4.39392 14.1008 3.64569 13.6062 3.01978 12.9804C 2.39386 12.3545 1.89568 11.599 1.52316 10.7309C 1.15174 9.86599 0.971749 8.94541 0.971749 7.99124C 0.971749 6.72204 1.28358 5.54733 1.90839 4.47273C 2.53543 3.3942 3.39643 2.53841 4.47291 1.90818C 5.54922 1.27798 6.72225 0.962777 7.99124 0.962777C 9.26043 0.962777 10.4409 1.27984 11.5185 1.90818C 12.6027 2.54027 13.4616 3.39603 14.0918 4.4727C 14.722 5.54919 15.0371 6.72204 15.0371 7.99121C 15.0371 9.26043 14.7241 10.4431 14.092 11.5275Z"/>
<path id="path1_fill" d="M 0.989118 5.02412L 0.989118 0.490151C 0.989118 0.218839 0.752727 -6.22661e-08 0.481389 -6.22661e-08C 0.227628 -6.22661e-08 -3.38472e-07 0.218839 -3.38472e-07 0.490151L -3.38472e-07 5.09412C -3.38472e-07 5.10291 0.0175523 5.13801 0.0175523 5.16417C 1.98012e-07 5.32175 0.0438931 5.45303 0.14884 5.55816L 2.76604 8.17518C 2.94117 8.35031 3.26496 8.35031 3.43995 8.17518C 3.64121 7.97389 3.62798 7.68184 3.43995 7.49248L 0.989118 5.02412Z"/>
</defs>
</svg>
