<svg width="16" height="16" viewBox="0 0 16 16" version="1.1" xmlns="http://www.w3.org/2000/svg" xmlns:xlink="http://www.w3.org/1999/xlink">
<title>icon_share</title>
<desc>Created using Figma</desc>
<g id="Canvas" transform="translate(-992 70)">
<g id="icon_share">
<g id="Vector">
<use xlink:href="#path0_fill" transform="translate(992 -70)" fill="#4D4D4D"/>
</g>
</g>
</g>
<defs>
<path id="path0_fill" d="M 13.0578 10.169C 12.1236 10.169 11.2995 10.6103 10.7612 11.2861L 5.76763 8.75407C 5.833 8.51231 5.87999 8.26252 5.87999 7.99963C 5.87999 7.71344 5.82419 7.444 5.74632 7.18182L 10.7178 4.66143C 11.2532 5.36782 12.0986 5.82953 13.0585 5.82953C 14.6846 5.82953 16 4.52527 16 2.91441C 16 1.305 14.6846 0 13.0586 0C 11.4361 0 10.1193 1.305 10.1193 2.91438C 10.1193 3.17801 10.1663 3.42851 10.2324 3.67101L 5.23957 6.20308C 4.70049 5.52657 3.87495 5.0838 2.93926 5.0838C 1.31464 5.0838 1.42873e-09 6.38951 1.42873e-09 7.99963C 1.42873e-09 9.60975 1.31468 10.9147 2.93926 10.9147C 3.90066 10.9147 4.74529 10.4516 5.28288 9.74449L 10.2522 12.2649C 10.1743 12.5263 10.1178 12.798 10.1178 13.0849C 10.1178 14.695 11.4347 16 13.0571 16C 14.6831 16 15.9985 14.695 15.9985 13.0849C 15.9993 11.4733 14.6839 10.169 13.0578 10.169Z"/>
</defs>
</svg>
