<svg width="114" height="29" viewBox="0 0 114 29" version="1.1" xmlns="http://www.w3.org/2000/svg" xmlns:xlink="http://www.w3.org/1999/xlink">
<title>logo_dp</title>
<desc>Created using Figma</desc>
<g id="Canvas" transform="translate(-690 222)">
<g id="logo_dp">
<g id="Vector">
<use xlink:href="#path0_fill" transform="translate(690 -222)" fill="#4D4D4D"/>
<use xlink:href="#path1_fill" transform="translate(690 -222)" fill="#4D4D4D"/>
<use xlink:href="#path2_fill" transform="translate(690 -222)" fill="#4D4D4D"/>
<use xlink:href="#path3_fill" transform="translate(690 -222)" fill="#4D4D4D"/>
<use xlink:href="#path4_fill" transform="translate(690 -222)" fill="#4D4D4D"/>
<use xlink:href="#path5_fill" transform="translate(690 -222)" fill="#4D4D4D"/>
<use xlink:href="#path6_fill" transform="translate(690 -222)" fill="#4D4D4D"/>
<use xlink:href="#path7_fill" transform="translate(690 -222)" fill="#4D4D4D"/>
<use xlink:href="#path8_fill" transform="translate(690 -222)" fill="#4D4D4D"/>
<use xlink:href="#path9_fill" transform="translate(690 -222)" fill="#4D4D4D"/>
<use xlink:href="#path10_fill" transform="translate(690 -222)" fill="#4D4D4D"/>
<use xlink:href="#path11_fill" transform="translate(690 -222)" fill="#4D4D4D"/>
<use xlink:href="#path12_fill" transform="translate(690 -222)" fill="#4D4D4D"/>
<use xlink:href="#path13_fill" transform="translate(690 -222)" fill="#4D4D4D"/>
<use xlink:href="#path14_fill" transform="translate(690 -222)" fill="#4D4D4D"/>
<use xlink:href="#path15_fill" transform="translate(690 -222)" fill="#4D4D4D"/>
<use xlink:href="#path16_fill" transform="translate(690 -222)" fill="#4D4D4D"/>
<use xlink:href="#path17_fill" transform="translate(690 -222)" fill="#4D4D4D"/>
<use xlink:href="#path18_fill" transform="translate(690 -222)" fill="#4D4D4D"/>
<use xlink:href="#path19_fill" transform="translate(690 -222)" fill="#4D4D4D"/>
<use xlink:href="#path20_fill" transform="translate(690 -222)" fill="#4D4D4D"/>
<use xlink:href="#path21_fill" transform="translate(690 -222)" fill="#4D4D4D"/>
<use xlink:href="#path22_fill" transform="translate(690 -222)" fill="#4D4D4D"/>
<use xlink:href="#path23_fill" transform="translate(690 -222)" fill="#4D4D4D"/>
<use xlink:href="#path24_fill" transform="translate(690 -222)" fill="#4D4D4D"/>
<use xlink:href="#path25_fill" transform="translate(690 -222)" fill="#4D4D4D"/>
<use xlink:href="#path26_fill" transform="translate(690 -222)" fill="#4D4D4D"/>
<use xlink:href="#path27_fill" transform="translate(690 -222)" fill="#4D4D4D"/>
<use xlink:href="#path28_fill" transform="translate(690 -222)" fill="#4D4D4D"/>
<use xlink:href="#path29_fill" transform="translate(690 -222)" fill="#4D4D4D"/>
<use xlink:href="#path30_fill" transform="translate(690 -222)" fill="#4D4D4D"/>
<use xlink:href="#path31_fill" transform="translate(690 -222)" fill="#4D4D4D"/>
<use xlink:href="#path32_fill" transform="translate(690 -222)" fill="#4D4D4D"/>
<use xlink:href="#path33_fill" transform="translate(690 -222)" fill="#4D4D4D"/>
</g>
</g>
</g>
<defs>
<path id="path0_fill" d="M 39.5942 20.9172C 39.5444 21.7714 39.2896 22.4439 38.8296 22.9346C 38.3726 23.4253 37.769 23.6707 37.019 23.6707C 36.1987 23.6707 35.5527 23.329 35.0811 22.6456C 34.6123 21.9586 34.3779 21.0171 34.3779 19.8212L 34.3779 19.3359C 34.3779 18.5726 34.4863 17.9001 34.7031 17.3185C 34.9199 16.7369 35.229 16.2916 35.6304 15.9826C 36.0347 15.67 36.5034 15.5137 37.0366 15.5137C 37.7749 15.5137 38.3696 15.759 38.8208 16.2498C 39.272 16.7405 39.5327 17.4293 39.603 18.3163L 38.2847 18.3163C 38.2524 17.8037 38.1367 17.433 37.9375 17.204C 37.7412 16.9713 37.4409 16.855 37.0366 16.855C 36.5972 16.855 36.2676 17.0513 36.0479 17.4439C 35.8311 17.8328 35.7197 18.4381 35.7139 19.2596L 35.7139 19.8594C 35.7139 20.7172 35.8179 21.3443 36.0259 21.7405C 36.2368 22.1367 36.5679 22.3348 37.019 22.3348C 37.4263 22.3348 37.7295 22.2203 37.9287 21.9913C 38.1309 21.7587 38.2466 21.4006 38.2759 20.9172L 39.5942 20.9172Z"/>
<path id="path1_fill" d="M 45.1445 16.9477L 43.1846 16.9477L 43.1846 23.5617L 41.8662 23.5617L 41.8662 16.9477L 39.9326 16.9477L 39.9326 15.6227L 45.1445 15.6227L 45.1445 16.9477Z"/>
<path id="path2_fill" d="M 48.2998 19.3741L 49.4644 15.6227L 50.8882 15.6227L 48.6514 22.1713L 48.4712 22.602C 48.1401 23.3181 47.6333 23.6762 46.9507 23.6762L 46.4893 23.6543L 46.4761 22.3403C 46.5464 22.3548 46.6606 22.3621 46.8188 22.3621C 47.0034 22.3621 47.1514 22.3221 47.2627 22.2421C 47.377 22.1622 47.4722 22.0149 47.5483 21.8005L 47.7109 21.2825L 45.4653 15.6227L 46.8848 15.6227L 48.2998 19.3741Z"/>
<path id="path3_fill" d="M 57.1592 25.5137L 55.9419 25.5137L 55.9419 23.5617L 52.0835 23.5617L 52.0835 25.5082L 50.8354 25.5082L 50.7651 22.2476L 51.2485 22.2476C 51.5093 21.9786 51.71 21.5842 51.8506 21.0644C 51.9941 20.5409 52.0908 19.8939 52.1406 19.1233L 52.3252 15.6227L 56.5176 15.6227L 56.5176 22.2476L 57.2646 22.2476L 57.1592 25.5137ZM 52.7603 22.2476L 55.1992 22.2476L 55.1992 16.9477L 53.5776 16.9477L 53.4678 19.036C 53.3799 20.4355 53.144 21.506 52.7603 22.2476Z"/>
<path id="path4_fill" d="M 61.7954 15.6227L 63.1182 15.6227L 63.1182 23.5617L 61.7954 23.5617L 61.7954 18.289L 59.2334 23.5617L 57.915 23.5617L 57.915 15.6227L 59.2334 15.6227L 59.2334 20.9063L 61.7954 15.6227Z"/>
<path id="path5_fill" d="M 67.2183 23.5617L 67.2183 20.6991L 66.146 20.6991L 64.9902 23.5617L 63.5664 23.5617L 64.9331 20.1756C 64.2739 19.7249 63.9443 19.0251 63.9443 18.0764C 63.9443 17.2985 64.1494 16.6969 64.5596 16.2716C 64.9697 15.8463 65.5425 15.63 66.2778 15.6227L 68.541 15.6227L 68.541 23.5617L 67.2183 23.5617ZM 65.2627 18.1963C 65.2627 18.6398 65.3491 18.9615 65.522 19.1614C 65.6978 19.3614 65.96 19.4613 66.3086 19.4613L 67.2183 19.4613L 67.2183 16.9477L 66.3086 16.9477C 65.6113 16.9477 65.2627 17.3639 65.2627 18.1963Z"/>
<path id="path6_fill" d="M 77.084 23.5617L 75.7612 23.5617L 75.7612 16.9477L 73.1992 16.9477L 73.1992 23.5617L 71.8809 23.5617L 71.8809 15.6227L 77.084 15.6227L 77.084 23.5617Z"/>
<path id="path7_fill" d="M 81.8564 21.9259L 79.5449 21.9259L 79.1055 23.5617L 77.7036 23.5617L 80.0854 15.6227L 81.3071 15.6227L 83.7021 23.5617L 82.3003 23.5617L 81.8564 21.9259ZM 79.9009 20.6009L 81.5005 20.6009L 80.6963 17.6293L 79.9009 20.6009Z"/>
<path id="path8_fill" d="M 84.2998 23.5617L 84.2998 15.6227L 86.541 15.6227C 87.3174 15.6227 87.9062 15.8081 88.3076 16.1789C 88.709 16.546 88.9097 17.0858 88.9097 17.7983C 88.9097 18.1872 88.8291 18.5308 88.668 18.8288C 88.5068 19.1233 88.2827 19.3396 87.9956 19.4777C 88.3237 19.5795 88.5815 19.7848 88.769 20.0938C 88.9595 20.4028 89.0547 20.7808 89.0547 21.228C 89.0547 21.9913 88.8584 22.5693 88.4658 22.9619C 88.0732 23.3545 87.5137 23.5544 86.7871 23.5617L 84.2998 23.5617ZM 85.6182 20.1047L 85.6182 22.2476L 86.7476 22.2476C 87.0581 22.2476 87.2998 22.1567 87.4727 21.975C 87.6484 21.7896 87.7363 21.5351 87.7363 21.2116C 87.7363 20.4846 87.4331 20.1156 86.8267 20.1047L 85.6182 20.1047ZM 85.6182 18.9488L 86.5938 18.9488C 87.2588 18.9342 87.5913 18.6053 87.5913 17.9619C 87.5913 17.602 87.5063 17.3439 87.3364 17.1876C 87.1694 17.0277 86.9043 16.9477 86.541 16.9477L 85.6182 16.9477L 85.6182 18.9488Z"/>
<path id="path9_fill" d="M 95.251 15.6227L 95.251 23.5617L 93.9282 23.5617L 93.9282 16.9477L 92.2231 16.9477L 92.1177 19.7503C 92.0737 20.6954 91.9771 21.4406 91.8276 21.9859C 91.6782 22.5275 91.46 22.9255 91.1729 23.18C 90.8857 23.4308 90.4932 23.558 89.9951 23.5617L 89.6523 23.5617L 89.6523 22.2476L 89.8721 22.2203C 90.2031 22.1658 90.439 21.9295 90.5796 21.5115C 90.7231 21.0898 90.814 20.341 90.8521 19.265L 90.9619 15.6227L 95.251 15.6227Z"/>
<path id="path10_fill" d="M 101.658 19.7721C 101.658 20.5537 101.547 21.2389 101.324 21.8277C 101.102 22.4166 100.782 22.871 100.366 23.1909C 99.9531 23.5108 99.4785 23.6707 98.9424 23.6707C 98.4121 23.6707 97.939 23.5126 97.5229 23.1963C 97.1069 22.8801 96.7847 22.4293 96.5562 21.8441C 96.3276 21.2552 96.2119 20.5791 96.209 19.8157L 96.209 19.4232C 96.209 18.6416 96.3218 17.9546 96.5474 17.3621C 96.7759 16.7659 97.0967 16.3097 97.5098 15.9935C 97.9258 15.6736 98.4004 15.5137 98.9336 15.5137C 99.4668 15.5137 99.9399 15.6736 100.353 15.9935C 100.769 16.3097 101.09 16.7659 101.315 17.3621C 101.544 17.9546 101.658 18.6398 101.658 19.4177L 101.658 19.7721ZM 100.322 19.4123C 100.322 18.5798 100.202 17.9473 99.9619 17.5148C 99.7217 17.0822 99.3789 16.8659 98.9336 16.8659C 98.4912 16.8659 98.1499 17.0804 97.9097 17.5093C 97.6694 17.9346 97.5479 18.5598 97.5449 19.385L 97.5449 19.7721C 97.5449 20.5827 97.665 21.2116 97.9053 21.6587C 98.1455 22.1058 98.4912 22.3294 98.9424 22.3294C 99.3848 22.3294 99.7246 22.1149 99.9619 21.686C 100.199 21.2534 100.319 20.6245 100.322 19.7994L 100.322 19.4123Z"/>
<path id="path11_fill" d="M 102.616 23.5617L 102.616 15.6227L 104.857 15.6227C 105.634 15.6227 106.223 15.8081 106.624 16.1789C 107.025 16.546 107.226 17.0858 107.226 17.7983C 107.226 18.1872 107.146 18.5308 106.984 18.8288C 106.823 19.1233 106.599 19.3396 106.312 19.4777C 106.64 19.5795 106.898 19.7848 107.085 20.0938C 107.276 20.4028 107.371 20.7808 107.371 21.228C 107.371 21.9913 107.175 22.5693 106.782 22.9619C 106.39 23.3545 105.83 23.5544 105.104 23.5617L 102.616 23.5617ZM 103.935 20.1047L 103.935 22.2476L 105.064 22.2476C 105.375 22.2476 105.616 22.1567 105.789 21.975C 105.965 21.7896 106.053 21.5351 106.053 21.2116C 106.053 20.4846 105.75 20.1156 105.143 20.1047L 103.935 20.1047ZM 103.935 18.9488L 104.91 18.9488C 105.575 18.9342 105.908 18.6053 105.908 17.9619C 105.908 17.602 105.823 17.3439 105.653 17.1876C 105.486 17.0277 105.221 16.9477 104.857 16.9477L 103.935 16.9477L 103.935 18.9488Z"/>
<path id="path12_fill" d="M 111.977 21.9259L 109.665 21.9259L 109.226 23.5617L 107.824 23.5617L 110.206 15.6227L 111.427 15.6227L 113.822 23.5617L 112.42 23.5617L 111.977 21.9259ZM 110.021 20.6009L 111.621 20.6009L 110.816 17.6293L 110.021 20.6009Z"/>
<path id="path13_fill" d="M 38.9727 9.10547C 38.9284 9.71745 38.7018 10.1992 38.293 10.5508C 37.8867 10.9023 37.3503 11.0781 36.6836 11.0781C 35.9544 11.0781 35.3802 10.8333 34.9609 10.3438C 34.5443 9.85156 34.3359 9.17708 34.3359 8.32031L 34.3359 7.97266C 34.3359 7.42578 34.4323 6.94401 34.625 6.52734C 34.8177 6.11068 35.0924 5.79167 35.4492 5.57031C 35.8086 5.34635 36.2253 5.23438 36.6992 5.23438C 37.3555 5.23438 37.8841 5.41016 38.2852 5.76172C 38.6862 6.11328 38.918 6.60677 38.9805 7.24219L 37.8086 7.24219C 37.7799 6.875 37.6771 6.60938 37.5 6.44531C 37.3255 6.27865 37.0586 6.19531 36.6992 6.19531C 36.3086 6.19531 36.0156 6.33594 35.8203 6.61719C 35.6276 6.89583 35.5286 7.32943 35.5234 7.91797L 35.5234 8.34766C 35.5234 8.96224 35.6159 9.41146 35.8008 9.69531C 35.9883 9.97917 36.2826 10.1211 36.6836 10.1211C 37.0456 10.1211 37.3151 10.0391 37.4922 9.875C 37.6719 9.70833 37.7747 9.45182 37.8008 9.10547L 38.9727 9.10547Z"/>
<path id="path14_fill" d="M 44.4141 8.28516C 44.4141 8.84505 44.3151 9.33594 44.1172 9.75781C 43.9193 10.1797 43.6354 10.5052 43.2656 10.7344C 42.8984 10.9635 42.4766 11.0781 42 11.0781C 41.5286 11.0781 41.1081 10.9648 40.7383 10.7383C 40.3685 10.5117 40.082 10.1888 39.8789 9.76953C 39.6758 9.34766 39.5729 8.86328 39.5703 8.31641L 39.5703 8.03516C 39.5703 7.47526 39.6706 6.98307 39.8711 6.55859C 40.0742 6.13151 40.3594 5.80469 40.7266 5.57812C 41.0964 5.34896 41.5182 5.23438 41.9922 5.23438C 42.4661 5.23438 42.8867 5.34896 43.2539 5.57812C 43.6237 5.80469 43.9089 6.13151 44.1094 6.55859C 44.3125 6.98307 44.4141 7.47396 44.4141 8.03125L 44.4141 8.28516ZM 43.2266 8.02734C 43.2266 7.43099 43.1198 6.97786 42.9062 6.66797C 42.6927 6.35807 42.388 6.20312 41.9922 6.20312C 41.599 6.20312 41.2956 6.35677 41.082 6.66406C 40.8685 6.96875 40.7604 7.41667 40.7578 8.00781L 40.7578 8.28516C 40.7578 8.86589 40.8646 9.31641 41.0781 9.63672C 41.2917 9.95703 41.599 10.1172 42 10.1172C 42.3932 10.1172 42.6953 9.96354 42.9062 9.65625C 43.1172 9.34635 43.224 8.89583 43.2266 8.30469L 43.2266 8.02734Z"/>
<path id="path15_fill" d="M 48.0703 6.87891C 48.0703 6.66276 47.9857 6.49349 47.8164 6.37109C 47.6471 6.24609 47.4232 6.18359 47.1445 6.18359C 46.8945 6.18359 46.6862 6.24609 46.5195 6.37109C 46.3555 6.49349 46.2734 6.65365 46.2734 6.85156L 45.1016 6.85156C 45.1016 6.54427 45.1875 6.26823 45.3594 6.02344C 45.5339 5.77604 45.7799 5.58333 46.0977 5.44531C 46.418 5.30729 46.7669 5.23828 47.1445 5.23828C 47.8008 5.23828 48.3151 5.37891 48.6875 5.66016C 49.0599 5.94141 49.2461 6.33984 49.2461 6.85547C 49.2461 7.10807 49.1693 7.34245 49.0156 7.55859C 48.8646 7.77474 48.6484 7.94792 48.3672 8.07812C 48.6797 8.1875 48.9193 8.35417 49.0859 8.57812C 49.2526 8.79948 49.3359 9.07552 49.3359 9.40625C 49.3359 9.91667 49.1354 10.3229 48.7344 10.625C 48.3359 10.9245 47.806 11.0742 47.1445 11.0742C 46.7305 11.0742 46.3581 11.0039 46.0273 10.8633C 45.6966 10.7201 45.4453 10.526 45.2734 10.2812C 45.1042 10.0339 45.0195 9.7474 45.0195 9.42188L 46.1992 9.42188C 46.1992 9.625 46.2878 9.79557 46.4648 9.93359C 46.6419 10.069 46.8685 10.1367 47.1445 10.1367C 47.457 10.1367 47.7031 10.0664 47.8828 9.92578C 48.0651 9.78516 48.1562 9.60677 48.1562 9.39062C 48.1562 9.09375 48.0755 8.88151 47.9141 8.75391C 47.7526 8.6237 47.5169 8.55859 47.207 8.55859L 46.5078 8.55859L 46.5078 7.64062L 47.2305 7.64062C 47.7904 7.63281 48.0703 7.37891 48.0703 6.87891Z"/>
<path id="path16_fill" d="M 55.4766 12.3984L 54.3945 12.3984L 54.3945 11L 50.9648 11L 50.9648 12.3945L 49.8555 12.3945L 49.793 10.0586L 50.2227 10.0586C 50.4544 9.86589 50.6328 9.58333 50.7578 9.21094C 50.8854 8.83594 50.9714 8.3724 51.0156 7.82031L 51.1797 5.3125L 54.9062 5.3125L 54.9062 10.0586L 55.5703 10.0586L 55.4766 12.3984ZM 51.5664 10.0586L 53.7344 10.0586L 53.7344 6.26172L 52.293 6.26172L 52.1953 7.75781C 52.1172 8.76042 51.9076 9.52734 51.5664 10.0586Z"/>
<path id="path17_fill" d="M 59.4609 9.82812L 57.4062 9.82812L 57.0156 11L 55.7695 11L 57.8867 5.3125L 58.9727 5.3125L 61.1016 11L 59.8555 11L 59.4609 9.82812ZM 57.7227 8.87891L 59.1445 8.87891L 58.4297 6.75L 57.7227 8.87891Z"/>
<path id="path18_fill" d="M 66.2617 11L 65.0898 11L 65.0898 8.5625L 62.8047 8.5625L 62.8047 11L 61.6328 11L 61.6328 5.3125L 62.8047 5.3125L 62.8047 7.61719L 65.0898 7.61719L 65.0898 5.3125L 66.2617 5.3125L 66.2617 11Z"/>
<path id="path19_fill" d="M 70.6992 5.3125L 71.875 5.3125L 71.875 11L 70.6992 11L 70.6992 7.22266L 68.4219 11L 67.25 11L 67.25 5.3125L 68.4219 5.3125L 68.4219 9.09766L 70.6992 5.3125Z"/>
<path id="path20_fill" d="M 76.3125 8.53516L 74.0625 8.53516L 74.0625 10.0586L 76.7031 10.0586L 76.7031 11L 72.8906 11L 72.8906 5.3125L 76.6953 5.3125L 76.6953 6.26172L 74.0625 6.26172L 74.0625 7.61719L 76.3125 7.61719L 76.3125 8.53516Z"/>
<path id="path21_fill" d="M 83.8477 9.10547C 83.8034 9.71745 83.5768 10.1992 83.168 10.5508C 82.7617 10.9023 82.2253 11.0781 81.5586 11.0781C 80.8294 11.0781 80.2552 10.8333 79.8359 10.3438C 79.4193 9.85156 79.2109 9.17708 79.2109 8.32031L 79.2109 7.97266C 79.2109 7.42578 79.3073 6.94401 79.5 6.52734C 79.6927 6.11068 79.9674 5.79167 80.3242 5.57031C 80.6836 5.34635 81.1003 5.23438 81.5742 5.23438C 82.2305 5.23438 82.7591 5.41016 83.1602 5.76172C 83.5612 6.11328 83.793 6.60677 83.8555 7.24219L 82.6836 7.24219C 82.6549 6.875 82.5521 6.60938 82.375 6.44531C 82.2005 6.27865 81.9336 6.19531 81.5742 6.19531C 81.1836 6.19531 80.8906 6.33594 80.6953 6.61719C 80.5026 6.89583 80.4036 7.32943 80.3984 7.91797L 80.3984 8.34766C 80.3984 8.96224 80.4909 9.41146 80.6758 9.69531C 80.8633 9.97917 81.1576 10.1211 81.5586 10.1211C 81.9206 10.1211 82.1901 10.0391 82.3672 9.875C 82.5469 9.70833 82.6497 9.45182 82.6758 9.10547L 83.8477 9.10547Z"/>
<path id="path22_fill" d="M 87.8281 9.82812L 85.7734 9.82812L 85.3828 11L 84.1367 11L 86.2539 5.3125L 87.3398 5.3125L 89.4688 11L 88.2227 11L 87.8281 9.82812ZM 86.0898 8.87891L 87.5117 8.87891L 86.7969 6.75L 86.0898 8.87891Z"/>
<path id="path23_fill" d="M 93.4102 5.3125L 94.5859 5.3125L 94.5859 11L 93.4102 11L 93.4102 7.22266L 91.1328 11L 89.9609 11L 89.9609 5.3125L 91.1328 5.3125L 91.1328 9.09766L 93.4102 5.3125ZM 93.6367 3.81641C 93.6367 4.16276 93.5117 4.44271 93.2617 4.65625C 93.0143 4.86979 92.6888 4.97656 92.2852 4.97656C 91.8815 4.97656 91.5547 4.87109 91.3047 4.66016C 91.0573 4.44922 90.9336 4.16797 90.9336 3.81641L 91.7344 3.81641C 91.7344 3.98047 91.7826 4.10807 91.8789 4.19922C 91.9779 4.28776 92.1133 4.33203 92.2852 4.33203C 92.4544 4.33203 92.5872 4.28776 92.6836 4.19922C 92.7799 4.10807 92.8281 3.98047 92.8281 3.81641L 93.6367 3.81641Z"/>
<path id="path24_fill" d="M 99.8828 6.26172L 98.1406 6.26172L 98.1406 11L 96.9688 11L 96.9688 6.26172L 95.25 6.26172L 95.25 5.3125L 99.8828 5.3125L 99.8828 6.26172Z"/>
<path id="path25_fill" d="M 103.297 9.82812L 101.242 9.82812L 100.852 11L 99.6055 11L 101.723 5.3125L 102.809 5.3125L 104.938 11L 103.691 11L 103.297 9.82812ZM 101.559 8.87891L 102.98 8.87891L 102.266 6.75L 101.559 8.87891Z"/>
<path id="path26_fill" d="M 9 0L 12 0L 12 24L 9 24L 9 0Z"/>
<path id="path27_fill" d="M 0 5L 3 5L 3 24L 0 24L 0 5Z"/>
<path id="path28_fill" d="M 3 8L 3 5L 9 5L 9 8L 3 8Z"/>
<path id="path29_fill" d="M 3 24L 3 21L 9 21L 9 24L 3 24Z"/>
<path id="path30_fill" d="M 18 29L 15 29L 15 5L 18 5L 18 29Z"/>
<path id="path31_fill" d="M 27 24L 24 24L 24 5L 27 5L 27 24Z"/>
<path id="path32_fill" d="M 24 21L 24 24L 18 24L 18 21L 24 21Z"/>
<path id="path33_fill" d="M 24 5L 24 8L 18 8L 18 5L 24 5Z"/>
</defs>
</svg>
