<svg width="201" height="44" viewBox="0 0 201 44" version="1.1" xmlns="http://www.w3.org/2000/svg" xmlns:xlink="http://www.w3.org/1999/xlink">
<title>logo_floreal</title>
<desc>Created using Figma</desc>
<g id="Canvas" transform="translate(-895 228)">
<g id="logo_floreal">
<g id="Vector">
<use xlink:href="#path0_fill" transform="translate(967 -225)" fill="#C93259"/>
<use xlink:href="#path1_fill" transform="translate(967 -225)" fill="#C93259"/>
<use xlink:href="#path2_fill" transform="translate(967 -225)" fill="#C93259"/>
<use xlink:href="#path3_fill" transform="translate(967 -225)" fill="#C93259"/>
<use xlink:href="#path4_fill" transform="translate(967 -225)" fill="#C93259"/>
<use xlink:href="#path5_fill" transform="translate(967 -225)" fill="#C93259"/>
<use xlink:href="#path6_fill" transform="translate(967 -225)" fill="#C93259"/>
<use xlink:href="#path7_fill" transform="translate(967 -225)" fill="#C93259"/>
<use xlink:href="#path8_fill" transform="translate(967 -225)" fill="#C93259"/>
<use xlink:href="#path9_fill" transform="translate(967 -225)" fill="#C93259"/>
<use xlink:href="#path10_fill" transform="translate(967 -225)" fill="#C93259"/>
<use xlink:href="#path11_fill" transform="translate(967 -225)" fill="#C93259"/>
</g>
<g id="element">
<g id="XMLID 243">
<use xlink:href="#path12_fill" transform="translate(932.24 -205.172)" fill="#75BF4F"/>
</g>
<g id="XMLID 244">
<use xlink:href="#path13_fill" transform="translate(895 -205.172)" fill="#75BF4F"/>
</g>
<g id="XMLID 245">
<use xlink:href="#path14_fill" transform="translate(932.957 -226.262)" fill="#FEC30F"/>
</g>
<g id="XMLID 246">
<use xlink:href="#path15_fill" transform="translate(903.81 -226.262)" fill="#FEC30F"/>
</g>
<g id="XMLID 247">
<use xlink:href="#path16_fill" transform="translate(916.519 -228)" fill="#C93259"/>
</g>
</g>
</g>
</g>
<defs>
<path id="path0_fill" d="M 3.15595 34.7055C 3.15595 34.8303 3.10727 34.9352 3.00991 35.021C 2.91254 35.1069 2.79964 35.1498 2.67018 35.1498L 0.460918 35.1498C 0.153299 35.1498 0 35.0021 0 34.7055L 0 0.515226C 0 0.218675 0.153299 0.0708911 0.460918 0.0708911L 9.39429 0.0708911C 9.70191 0.0708911 9.85519 0.218675 9.85519 0.515226L 9.85519 2.645C 9.85519 2.76981 9.81066 2.87865 9.72158 2.97251C 9.63251 3.06637 9.52376 3.11329 9.39429 3.11329L 3.15595 3.11329L 3.15595 12.2405L 7.88934 12.2405C 8.01881 12.2405 8.13171 12.2874 8.22907 12.3813C 8.32643 12.4751 8.3751 12.584 8.3751 12.7088L 8.3751 14.8146C 8.3751 14.9394 8.32643 15.0483 8.22907 15.1421C 8.13171 15.236 8.01881 15.2829 7.88934 15.2829L 3.15595 15.2829L 3.15595 34.7055Z"/>
<path id="path1_fill" d="M 16.1919 34.6816C 16.1919 34.8064 16.1433 34.9152 16.0459 35.0091C 15.9485 35.1029 15.8356 35.1498 15.7062 35.1498L 13.4969 35.1498C 13.3674 35.1498 13.2587 35.1029 13.1696 35.0091C 13.0805 34.9152 13.036 34.8064 13.036 34.6816L 13.036 0.444335C 13.036 0.147784 13.1893 0 13.4969 0L 15.7062 0C 15.8356 0 15.9485 0.0429329 16.0459 0.128803C 16.1433 0.214673 16.1919 0.319524 16.1919 0.444335L 16.1919 34.6816Z"/>
<path id="path2_fill" d="M 23.4982 8.47121C 24.1289 8.47121 24.7286 8.58802 25.2942 8.82266C 25.8597 9.05731 26.3538 9.37683 26.7753 9.78221C 27.1969 10.1876 27.5283 10.6599 27.7707 11.1981C 28.013 11.7363 28.1352 12.3174 28.1352 12.9414L 28.1352 30.6567C 28.1352 31.2807 28.0141 31.8658 27.7707 32.412C 27.5273 32.9582 27.1958 33.4334 26.7753 33.8398C 26.3548 34.2462 25.8607 34.5657 25.2942 34.7994C 24.7276 35.033 24.13 35.1499 23.4982 35.1499C 22.915 35.1499 22.3568 35.048 21.8234 34.8453C 20.9564 34.5178 20.2469 33.9836 19.6918 33.2427C 19.1387 32.5019 18.8611 31.6402 18.8611 30.6567L 18.8611 12.9414C 18.8611 12.4731 18.9326 12.0208 19.0776 11.5845C 19.2226 11.1482 19.4266 10.7497 19.6918 10.3913C 19.9569 10.0328 20.2697 9.71232 20.6312 9.43174C 20.9927 9.15117 21.3894 8.93251 21.8234 8.77674C 22.2926 8.57305 22.8508 8.47121 23.4982 8.47121ZM 25.1492 12.9434C 25.1492 12.5061 24.9907 12.1317 24.6727 11.8191C 24.3547 11.5066 23.9674 11.3498 23.5106 11.3498C 23.0373 11.3498 22.6426 11.5066 22.3247 11.8191C 22.0067 12.1317 21.8482 12.5061 21.8482 12.9434L 21.8482 30.6786C 21.8482 31.1319 22.0067 31.5104 22.3247 31.8149C 22.6426 32.1194 23.0373 32.2722 23.5106 32.2722C 23.9674 32.2722 24.3547 32.1204 24.6727 31.8149C 24.9907 31.5104 25.1492 31.1319 25.1492 30.6786L 25.1492 12.9434Z"/>
<path id="path3_fill" d="M 38.4524 10.0398L 36.9961 11.4207C 36.8832 11.5296 36.7538 11.5685 36.6077 11.5376L 36.268 11.3738C 36.0577 11.265 35.7988 11.2101 35.4912 11.2101C 35.0375 11.2101 34.6491 11.3658 34.326 11.6783C 34.0028 11.9909 33.8402 12.3723 33.8402 12.8246L 33.8402 33.6062L 33.8164 34.7764L 33.8164 34.8233C 33.7842 34.9012 33.7283 34.9711 33.6475 35.034C 33.5667 35.0969 33.4787 35.1279 33.3834 35.1279L 31.3119 35.1279C 31.0716 35.1279 30.9266 35.026 30.879 34.8233C 30.8634 34.8074 30.8551 34.7684 30.8551 34.7065L 30.8551 8.77674C 30.8551 8.48018 31.0074 8.3324 31.3119 8.3324L 33.3834 8.3324C 33.4797 8.3324 33.5678 8.36335 33.6475 8.42625C 33.7273 8.48916 33.7842 8.55907 33.8164 8.63695C 34.0908 8.54309 34.3663 8.4692 34.6408 8.41428C 34.9153 8.35936 35.1991 8.3324 35.4901 8.3324C 36.0733 8.3324 36.6233 8.43426 37.1411 8.63695C 37.6269 8.80869 38.064 9.05031 38.4524 9.36284L 38.5011 9.38582C 38.6958 9.60448 38.6875 9.81516 38.4772 10.0179L 38.4524 10.0398Z"/>
<path id="path4_fill" d="M 42.6275 22.3492L 42.6275 30.6766C 42.6275 31.1299 42.7859 31.5094 43.1039 31.8149C 43.4219 32.1194 43.8093 32.2722 44.266 32.2722C 44.7383 32.2722 45.134 32.1204 45.452 31.8159C 45.7699 31.5113 45.9284 31.1329 45.9284 30.6806L 45.9284 24.7366C 45.9284 24.456 46.0807 24.3152 46.3852 24.3152L 48.4567 24.3152C 48.6649 24.3152 48.8099 24.4091 48.8896 24.5958C 48.8896 24.6268 48.8938 24.6507 48.9021 24.6657C 48.9103 24.6807 48.9145 24.7047 48.9145 24.7356L 48.9145 30.6796C 48.9145 31.1629 48.8378 31.6232 48.6856 32.0585C 48.5333 32.4949 48.3241 32.8933 48.06 33.2567C 47.7948 33.6202 47.481 33.9367 47.1206 34.2073C 46.7601 34.4779 46.3624 34.6905 45.9295 34.8453C 45.3909 35.048 44.8367 35.1498 44.2671 35.1498C 43.6974 35.1498 43.1422 35.048 42.6047 34.8453C 41.7378 34.5178 41.0283 33.9836 40.4731 33.2427C 39.92 32.5018 39.6424 31.6402 39.6424 30.6566L 39.6424 12.9175C 39.6424 12.4492 39.7139 11.9969 39.8589 11.5605C 40.0039 11.1242 40.2079 10.7258 40.4731 10.3673C 40.7382 10.0089 41.051 9.68834 41.4125 9.40777C 41.774 9.12719 42.1707 8.90853 42.6047 8.75277C 43.077 8.55007 43.6321 8.44822 44.2671 8.44822C 44.8533 8.44822 45.4085 8.54208 45.9295 8.7288C 46.7964 9.07228 47.51 9.61446 48.0724 10.3553C 48.6338 11.0962 48.9145 11.9509 48.9145 12.9175L 48.9145 21.9039C 48.9145 21.9977 48.8824 22.0836 48.8171 22.1615C 48.7519 22.2394 48.6794 22.2943 48.5986 22.3252C 48.5665 22.3252 48.5416 22.3292 48.5261 22.3372C 48.5106 22.3452 48.4857 22.3492 48.4536 22.3492L 42.6275 22.3492ZM 42.6275 19.4706L 45.9295 19.4706L 45.9295 12.9225C 45.9295 12.4841 45.771 12.1087 45.453 11.7962C 45.135 11.4836 44.7394 11.3269 44.2671 11.3269C 43.8103 11.3269 43.4229 11.4836 43.1049 11.7962C 42.787 12.1087 42.6285 12.4841 42.6285 12.9225L 42.6285 19.4706L 42.6275 19.4706Z"/>
<path id="path5_fill" d="M 56.2456 8.44822C 56.8929 8.44822 57.4957 8.56505 58.054 8.79969C 58.6123 9.03434 59.1022 9.35385 59.5227 9.75924C 59.9432 10.1646 60.2757 10.6409 60.518 11.1871C 60.7604 11.7333 60.8826 12.3104 60.8826 12.9185L 60.8826 34.6825C 60.8826 34.9791 60.7366 35.1269 60.4455 35.1269L 58.3336 35.1269C 58.1234 35.1269 57.9856 35.025 57.9214 34.8223C 57.6459 34.9162 57.3714 34.9901 57.0959 35.045C 56.8204 35.0999 56.5377 35.1269 56.2466 35.1269C 55.9556 35.1269 55.6718 35.0999 55.3973 35.045C 55.1228 34.9901 54.8473 34.9162 54.5718 34.8223C 53.6976 34.4948 52.986 33.9606 52.435 33.2198C 51.884 32.4789 51.6095 31.6172 51.6095 30.6337L 51.6095 20.7816L 51.6095 12.9185C 51.6095 12.4502 51.682 11.9979 51.8281 11.5615C 51.9741 11.1252 52.1761 10.7268 52.435 10.3683C 52.694 10.0099 53.0057 9.68935 53.3693 9.40877C 53.7328 9.1282 54.1337 8.90952 54.5708 8.75376C 55.0565 8.54907 55.6148 8.44822 56.2456 8.44822ZM 56.2456 32.2482C 56.7148 32.2482 57.1073 32.0965 57.4232 31.7909C 57.7391 31.4854 57.8966 31.108 57.8966 30.6546L 57.8966 12.9195C 57.8966 12.4821 57.7391 12.1077 57.4232 11.7952C 57.1073 11.4826 56.7148 11.3259 56.2456 11.3259C 55.7919 11.3259 55.4035 11.4826 55.0803 11.7952C 54.7561 12.1077 54.5946 12.4821 54.5946 12.9195L 54.5946 30.6546C 54.5946 31.108 54.7561 31.4864 55.0803 31.7909C 55.4045 32.0955 55.7929 32.2482 56.2456 32.2482Z"/>
<path id="path6_fill" d="M 66.7088 34.6816C 66.7088 34.8064 66.6601 34.9152 66.5627 35.0091C 66.4653 35.1029 66.3525 35.1498 66.223 35.1498L 64.0137 35.1498C 63.8842 35.1498 63.7755 35.1029 63.6864 35.0091C 63.5974 34.9152 63.5528 34.8064 63.5528 34.6816L 63.5528 0.444335C 63.5528 0.147784 63.7061 0 64.0137 0L 66.223 0C 66.3525 0 66.4653 0.0429329 66.5627 0.128803C 66.6601 0.214673 66.7088 0.319524 66.7088 0.444335L 66.7088 34.6816Z"/>
<path id="path7_fill" d="M 69.6461 23.0511C 69.468 23.0511 69.294 22.9693 69.1241 22.8055C 68.9543 22.6418 68.8693 22.474 68.8693 22.3023L 68.8693 21.0152C 68.8693 20.8435 68.9543 20.6757 69.1241 20.512C 69.294 20.3482 69.468 20.2663 69.6461 20.2663L 80.9586 20.2663C 81.1368 20.2663 81.3108 20.3482 81.4807 20.512C 81.6505 20.6757 81.7355 20.8435 81.7355 21.0152L 81.7355 22.3023C 81.7355 22.474 81.6505 22.6418 81.4807 22.8055C 81.3108 22.9693 81.1368 23.0511 80.9586 23.0511L 69.6461 23.0511Z"/>
<path id="path8_fill" d="M 93.0479 15.7731C 93.0479 15.882 93.0075 15.9758 92.9268 16.0537C 92.846 16.1316 92.7403 16.1706 92.6109 16.1706L 90.5228 16.1706C 90.2152 16.1706 90.0619 16.0228 90.0619 15.7262L 90.0619 12.9175C 90.0619 12.4801 89.9044 12.1057 89.5885 11.7942C 89.2726 11.4826 88.8884 11.3259 88.4357 11.3259C 87.9665 11.3259 87.5699 11.4816 87.2467 11.7942C 86.9235 12.1067 86.7609 12.4811 86.7609 12.9175L 86.7609 18.3003C 86.7609 18.7377 86.9225 19.1121 87.2467 19.4236C 87.5709 19.7352 87.9665 19.8919 88.4357 19.8919C 89.0023 19.8919 89.544 19.9858 90.0619 20.1725C 90.7413 20.4221 91.3244 20.8045 91.8102 21.3188C 92.1986 21.7241 92.5021 22.1845 92.7207 22.6997C 92.9392 23.2149 93.0479 23.7681 93.0479 24.3612L 93.0479 30.6796C 93.0479 31.1629 92.9754 31.6232 92.8294 32.0605C 92.6834 32.4979 92.4773 32.8953 92.21 33.2537C 91.9428 33.6122 91.6269 33.9327 91.2633 34.2133C 90.8998 34.4938 90.499 34.7125 90.0619 34.8683C 89.544 35.056 89.0023 35.1488 88.4357 35.1488C 87.8526 35.1488 87.2943 35.055 86.7609 34.8683C 85.8867 34.5408 85.171 34.0066 84.6128 33.2657C 84.0545 32.5248 83.7749 31.6631 83.7749 30.6796L 83.7749 26.6078C 83.7749 26.3272 83.9281 26.1864 84.2358 26.1864L 86.3238 26.1864C 86.6149 26.1864 86.7609 26.3272 86.7609 26.6078L 86.7609 30.6796C 86.7609 31.1169 86.9225 31.4914 87.2467 31.8029C 87.5709 32.1144 87.9665 32.2712 88.4357 32.2712C 88.8894 32.2712 89.2737 32.1154 89.5885 31.8029C 89.9034 31.4904 90.0619 31.1159 90.0619 30.6796L 90.0619 24.3612C 90.0619 23.9088 89.9044 23.5304 89.5885 23.2259C 89.2726 22.9213 88.8884 22.7696 88.4357 22.7696C 87.8526 22.7696 87.2943 22.6757 86.7609 22.489C 86.097 22.2394 85.5149 21.849 85.0126 21.3188C 84.6407 20.9134 84.3414 20.4571 84.1146 19.9498C 83.8877 19.4426 83.7749 18.8924 83.7749 18.3003L 83.7749 12.9175C 83.7749 11.9499 84.0545 11.0962 84.6128 10.3553C 85.171 9.61446 85.8867 9.07228 86.7609 8.7288C 87.2954 8.54109 87.8536 8.44822 88.4357 8.44822C 89.0023 8.44822 89.544 8.54208 90.0619 8.7288C 90.936 9.05631 91.6518 9.59049 92.21 10.3314C 92.7683 11.0723 93.0479 11.9339 93.0479 12.9175L 93.0479 15.7731Z"/>
<path id="path9_fill" d="M 105.04 34.7285C 105.04 35.0091 104.888 35.1499 104.583 35.1499L 102.512 35.1499C 102.27 35.1499 102.125 35.056 102.079 34.8693C 102.079 34.8383 102.075 34.8144 102.066 34.7994C 102.058 34.7844 102.054 34.7604 102.054 34.7295L 102.054 12.9654C 102.054 12.5281 101.897 12.1536 101.584 11.8421C 101.27 11.5296 100.88 11.3738 100.415 11.3738L 98.7529 11.3738L 98.7529 34.7295C 98.7529 35.0101 98.5975 35.1509 98.2878 35.1509L 96.1832 35.1509C 95.9709 35.1509 95.8321 35.073 95.7668 34.9172L 95.7668 0.469297C 95.8486 0.297557 95.9874 0.211691 96.1832 0.211691L 98.2878 0.211691C 98.5168 0.211691 98.6638 0.31353 98.7291 0.516223C 98.7456 0.532199 98.7529 0.579135 98.7529 0.657017L 98.7529 8.49716L 100.416 8.49716C 100.994 8.49716 101.54 8.59101 102.055 8.77773L 102.079 8.80069C 102.736 9.03434 103.313 9.41677 103.81 9.94697C 104.196 10.3524 104.5 10.8286 104.725 11.3748C 104.935 11.89 105.041 12.4202 105.041 12.9664L 105.041 34.7285L 105.04 34.7285Z"/>
<path id="path10_fill" d="M 112.371 8.47121C 113.002 8.47121 113.601 8.58802 114.167 8.82266C 114.733 9.05731 115.227 9.37683 115.648 9.78221C 116.07 10.1876 116.401 10.6599 116.643 11.1981C 116.886 11.7363 117.008 12.3174 117.008 12.9414L 117.008 30.6567C 117.008 31.2807 116.887 31.8658 116.643 32.412C 116.4 32.9582 116.069 33.4334 115.648 33.8398C 115.228 34.2462 114.734 34.5657 114.167 34.7994C 113.6 35.033 113.002 35.1499 112.371 35.1499C 111.788 35.1499 111.23 35.048 110.696 34.8453C 109.829 34.5178 109.12 33.9836 108.565 33.2427C 108.012 32.5019 107.734 31.6402 107.734 30.6567L 107.734 12.9414C 107.734 12.4731 107.805 12.0208 107.95 11.5845C 108.095 11.1482 108.299 10.7497 108.565 10.3913C 108.83 10.0328 109.143 9.71232 109.504 9.43174C 109.865 9.15117 110.262 8.93251 110.696 8.77674C 111.165 8.57305 111.724 8.47121 112.371 8.47121ZM 114.022 12.9434C 114.022 12.5061 113.864 12.1317 113.546 11.8191C 113.228 11.5066 112.84 11.3498 112.383 11.3498C 111.91 11.3498 111.515 11.5066 111.197 11.8191C 110.88 12.1317 110.721 12.5061 110.721 12.9434L 110.721 30.6786C 110.721 31.1319 110.88 31.5104 111.197 31.8149C 111.515 32.1194 111.91 32.2722 112.383 32.2722C 112.84 32.2722 113.228 32.1204 113.546 31.8149C 113.864 31.5104 114.022 31.1319 114.022 30.6786L 114.022 12.9434Z"/>
<path id="path11_fill" d="M 129 30.6796C 129 31.2258 128.894 31.756 128.684 32.2712C 128.459 32.8643 128.114 33.3865 127.649 33.8388C 127.184 34.2911 126.647 34.6267 126.038 34.8453C 125.777 34.9542 125.503 35.033 125.218 35.079C 124.934 35.1249 124.644 35.1488 124.351 35.1488L 122.712 35.1488L 122.712 40.5786C 122.712 40.6096 122.708 40.6336 122.7 40.6485C 122.691 40.6635 122.687 40.6795 122.687 40.6955C 122.622 40.8982 122.478 41 122.254 41L 120.183 41C 119.878 41 119.726 40.8592 119.726 40.5786L 119.726 8.89256C 119.726 8.81468 119.734 8.76775 119.75 8.75177C 119.782 8.67389 119.838 8.604 119.919 8.54109C 119.999 8.47819 120.087 8.44724 120.184 8.44724L 124.351 8.44724C 124.937 8.44724 125.499 8.54908 126.038 8.75177C 126.647 8.98542 127.184 9.32491 127.649 9.77024C 128.114 10.2146 128.459 10.7338 128.684 11.3269C 128.781 11.5925 128.858 11.8491 128.915 12.0987C 128.972 12.3483 129 12.6139 129 12.8945L 129 30.6796ZM 126.014 12.8945C 126.014 12.4572 125.855 12.0867 125.537 11.7832C 125.22 11.4787 124.824 11.3269 124.352 11.3269L 122.713 11.3269L 122.713 32.2722L 124.352 32.2722C 124.824 32.2722 125.22 32.1164 125.537 31.8039C 125.855 31.4914 126.014 31.117 126.014 30.6806L 126.014 12.8945Z"/>
<path id="path12_fill" d="M 16.2674 2.51333e-07C 15.7831 1.37471 15.1988 2.73913 14.4642 4.06379C 10.7888 10.6922 4.64734 14.6954 1.68388e-06 16.9325C 1.04135 17.0707 2.13147 17.1723 3.27961 17.1723C 5.68266 17.1723 8.25136 16.7933 10.7004 15.7165C 18.984 12.0709 22.7597 1.82021 22.7597 1.82021C 22.7597 1.82021 20.0479 0.603392 16.2674 2.51333e-07Z"/>
<path id="path13_fill" d="M 8.29545 4.0616C 7.56214 2.73707 6.97686 1.37356 6.49344 1.16241e-06C 2.71182 0.603264 0 1.82021 0 1.82021C 0 1.82021 3.7746 12.0709 12.0593 15.7165C 14.5073 16.7932 17.076 17.1723 19.4802 17.1723C 20.6283 17.1723 21.7194 17.0707 22.7607 16.9325C 18.1123 14.6954 11.9712 10.6912 8.29545 4.0616Z"/>
<path id="path14_fill" d="M -1.1727e-06 32.7619C 3.59823 30.6847 7.60032 27.5419 10.1368 22.9672C 15.6721 12.9756 12.1005 1.17812e-07 12.1005 1.17812e-07C 12.1005 1.17812e-07 6.88757 1.35322 1.69905 4.98142C 3.3726 8.47862 4.69722 12.6979 4.69722 17.2972C 4.69722 23.382 2.37854 28.8008 -1.1727e-06 32.7619Z"/>
<path id="path15_fill" d="M 13.2343 32.7619C 10.8556 28.8008 8.5369 23.382 8.5369 17.2972C 8.5369 12.6979 9.86153 8.47862 11.5351 4.98142C 6.34656 1.35322 1.13365 1.17812e-07 1.13365 1.17812e-07C 1.13365 1.17812e-07 -2.43785 12.9757 3.09762 22.9672C 5.63393 27.5419 9.63614 30.6847 13.2343 32.7619Z"/>
<path id="path16_fill" d="M 8.48155 -2.98458e-07C 8.48155 -2.98458e-07 1.50346e-08 8.52173 1.50346e-08 19.0356C 1.50346e-08 29.5475 8.48155 38.0701 8.48155 38.0701C 8.48155 38.0701 16.9624 29.5476 16.9624 19.0356C 16.9624 8.52173 8.48155 -2.98458e-07 8.48155 -2.98458e-07Z"/>
</defs>
</svg>
