<svg width="30" height="30" viewBox="0 0 30 30" version="1.1" xmlns="http://www.w3.org/2000/svg" xmlns:xlink="http://www.w3.org/1999/xlink">
<title>icon_close_2</title>
<desc>Created using Figma</desc>
<g id="Canvas" transform="translate(-1385 114)">
<g id="icon_close_2">
<g id="Close">
<g id="Vector">
<use xlink:href="#path0_fill" transform="translate(1385 -114)" fill="#7C7C7C"/>
</g>
</g>
</g>
</g>
<defs>
<path id="path0_fill" fill-rule="evenodd" d="M 18.5655 15.0001L 29.2616 4.30395C 30.2461 3.31936 30.2461 1.72303 29.2616 0.738583C 28.277 -0.246006 26.6808 -0.246006 25.6962 0.738583L 14.9999 11.4348L 4.3037 0.738442C 3.31911 -0.246147 1.72293 -0.246147 0.738336 0.738442C -0.246112 1.72303 -0.246112 3.31936 0.738336 4.30381L 11.4346 14.9999L 0.738336 25.6962C -0.246112 26.6807 -0.246112 28.2771 0.738336 29.2615C 1.72293 30.2461 3.31911 30.2461 4.3037 29.2615L 14.9999 18.5653L 25.6962 29.2615C 26.6806 30.2461 28.277 30.2461 29.2616 29.2615C 30.2461 28.2769 30.2461 26.6807 29.2616 25.6962L 18.5655 15.0001Z"/>
</defs>
</svg>
