<svg width="40" height="40" viewBox="0 0 40 40" version="1.1" xmlns="http://www.w3.org/2000/svg" xmlns:xlink="http://www.w3.org/1999/xlink">
<title>icon_time</title>
<desc>Created using Figma</desc>
<g id="Canvas" transform="translate(-1609 -46)">
<g id="icon_time">
<g id="Vector">
<use xlink:href="#path0_fill" transform="translate(1609 46)" fill="#7A7A7A"/>
</g>
<g id="Vector">
<use xlink:href="#path1_fill" transform="translate(1627.76 53.2388)" fill="#7A7A7A"/>
</g>
</g>
</g>
<defs>
<path id="path0_fill" d="M 38.4034 12.2035C 36.2945 7.2868 32.7108 3.71105 27.7531 1.5966C 25.2752 0.539804 22.6792 -1.48038e-10 19.9671 -1.48038e-10C 17.2555 -1.48038e-10 14.6786 0.534706 12.2035 1.5966C 7.2868 3.70542 3.68726 7.27889 1.57464 12.2035C 0.516013 14.6707 0 17.2554 0 19.9671C 0 22.6792 0.516013 25.2854 1.57464 27.7531C 3.68726 32.6777 7.28725 36.2726 12.2035 38.382C 14.6791 39.4439 17.2554 39.978 19.9671 39.978C 22.6788 39.978 25.2752 39.4382 27.7527 38.382C 32.7105 36.2674 36.2941 32.6693 38.4035 27.7531C 39.4653 25.2775 40 22.6792 40 19.9671C 40 17.2554 39.4658 14.679 38.4034 12.2035ZM 35.2107 28.8029C 33.6407 31.4954 31.4899 33.6314 28.781 35.2107C 26.0885 36.7807 23.1384 37.5725 19.9676 37.5725C 17.5839 37.5725 15.3094 37.1134 13.1441 36.1728C 10.9788 35.2327 9.10922 33.9967 7.54529 32.4333C 5.98137 30.8693 4.7366 28.9816 3.80582 26.8125C 2.87778 24.6514 2.42804 22.3512 2.42804 19.9671C 2.42804 16.7959 3.20719 13.8607 4.76837 11.1757C 6.3351 8.48085 8.48641 6.34255 11.1761 4.76784C 13.8654 3.1932 16.7964 2.40562 19.9671 2.40562C 23.1384 2.40562 26.088 3.19784 28.7805 4.76784C 31.4894 6.34719 33.6356 8.48542 35.2103 11.1756C 36.7849 13.8654 37.572 16.7959 37.572 19.9671C 37.572 23.1384 36.7901 26.0935 35.2107 28.8029Z"/>
<path id="path1_fill" d="M 2.47144 12.5534L 2.47144 1.22471C 2.47144 0.546797 1.88078 -1.5558e-07 1.20281 -1.5558e-07C 0.568758 -1.5558e-07 -8.45716e-07 0.546797 -8.45716e-07 1.22471L -8.45716e-07 12.7283C -8.45716e-07 12.7503 0.0438567 12.838 0.0438567 12.9033C 4.94758e-07 13.2971 0.109673 13.6251 0.371895 13.8878L 6.91131 20.4267C 7.34889 20.8643 8.15791 20.8643 8.59516 20.4267C 9.09804 19.9238 9.06497 19.1941 8.59516 18.7209L 2.47144 12.5534Z"/>
</defs>
</svg>
