<svg width="60" height="60" viewBox="0 0 60 60" version="1.1" xmlns="http://www.w3.org/2000/svg" xmlns:xlink="http://www.w3.org/1999/xlink">
<title>icon_odnoklassniki_3</title>
<desc>Created using Figma</desc>
<g id="Canvas" transform="translate(-1614 -132)">
<g id="icon_odnoklassniki_3">
<g id="Vector">
<use xlink:href="#path0_fill" transform="translate(1638.83 146.522)" fill="#ED822C"/>
</g>
<g id="Vector">
<use xlink:href="#path1_fill" transform="translate(1614 132)" fill="#ED822C"/>
</g>
</g>
</g>
<defs>
<path id="path0_fill" d="M 5.20282 10.3421C 8.06747 10.3317 10.349 8.03049 10.3386 5.1597C 10.3281 2.28768 8.04169 0.00245886 5.17581 3.61226e-06C 2.28599 -0.00306544 -0.02194 2.3245 0.000157171 5.2223C 0.0216405 8.08266 2.32896 10.3525 5.20282 10.3421Z"/>
<path id="path1_fill" d="M 30 0C 13.4314 0 0 13.432 0 30C 0 46.568 13.4314 60 30 60C 46.5686 60 60 46.568 60 30C 60 13.432 46.5686 0 30 0ZM 30.043 9.12307C 35.8864 9.13903 40.5766 13.9188 40.5465 19.8267C 40.517 25.5984 35.7502 30.2762 29.9165 30.2566C 24.1424 30.2369 19.4069 25.4498 19.4412 19.6665C 19.4738 13.82 24.2118 9.10711 30.043 9.12307ZM 41.8785 34.4084C 40.5864 35.7348 39.031 36.6948 37.3037 37.3645C 35.671 37.9973 33.8817 38.3159 32.1103 38.5283C 32.3785 38.8192 32.5043 38.9622 32.6713 39.1292C 35.075 41.5458 37.4903 43.9501 39.886 46.3734C 40.7024 47.1996 40.8724 48.2234 40.4231 49.1828C 39.9327 50.2324 38.8321 50.9223 37.7524 50.8481C 37.0686 50.8008 36.5352 50.4614 36.062 49.9844C 34.2476 48.159 32.3988 46.366 30.6224 44.5062C 30.1037 43.9648 29.8558 44.0679 29.3985 44.5381C 27.5736 46.4176 25.7187 48.267 23.8533 50.1066C 23.0154 50.9328 22.0186 51.0826 21.0463 50.6099C 20.0133 50.1103 19.3565 49.0551 19.4069 47.9939C 19.4425 47.2782 19.7948 46.7294 20.2871 46.2396C 22.6668 43.8648 25.0392 41.4826 27.4122 39.1022C 27.5699 38.9444 27.716 38.7769 27.945 38.5314C 24.7083 38.1931 21.7897 37.3964 19.2908 35.4427C 18.9803 35.1996 18.6605 34.9651 18.3781 34.6926C 17.2837 33.6423 17.1738 32.4387 18.0387 31.2C 18.7795 30.1393 20.0219 29.8558 21.314 30.4653C 21.5644 30.5825 21.8026 30.731 22.0309 30.8882C 26.6873 34.088 33.0844 34.1758 37.7592 31.0312C 38.222 30.6776 38.7173 30.3867 39.2913 30.24C 40.4059 29.9527 41.447 30.3634 42.0448 31.3393C 42.7292 32.4546 42.7212 33.5423 41.8785 34.4084Z"/>
</defs>
</svg>
