<svg width="97" height="98" viewBox="0 0 97 98" version="1.1" xmlns="http://www.w3.org/2000/svg" xmlns:xlink="http://www.w3.org/1999/xlink">
<title>icon_wallet_2</title>
<desc>Created using Figma</desc>
<g id="Canvas" transform="translate(-1906 90)">
<g id="icon_wallet_2">
<g id="Vector">
<use xlink:href="#path0_fill" transform="translate(1906 -90)" fill="#C93259"/>
</g>
<g id="Ellipse 5">
<use xlink:href="#path1_fill" transform="translate(1977.54 -37.08)" fill="#C93259"/>
</g>
</g>
</g>
<defs>
<path id="path0_fill" d="M 96.9519 45.6524L 92.2531 45.6524L 92.2531 24.0233C 92.2531 18.8379 88.0374 14.6194 82.8554 14.6194L 76.4914 14.6194L 69.9788 2.90217C 68.9863 1.11147 67.0973 0 65.0487 0C 64.0938 0 63.1466 0.246408 62.3102 0.710836L 37.3162 14.6191L 9.39762 14.6191C 4.21568 14.6191 0 18.8376 0 24.023L 0 88.5961C 0 93.7815 4.21568 98 9.39762 98L 82.8554 98C 88.0374 98 92.2531 93.7815 92.2531 88.5961L 92.2531 69.6321L 96.9519 69.6321L 96.9519 45.6524ZM 82.8554 18.3808C 85.7498 18.3808 88.1143 20.5812 88.4319 23.3967L 81.3686 23.3967L 78.583 18.3808L 82.8554 18.3808ZM 64.1389 3.99842C 65.0203 3.50385 66.2065 3.84975 66.6931 4.72828L 77.0681 23.395L 29.2793 23.395L 64.1389 3.99842ZM 88.4939 88.5961C 88.4939 91.7069 85.9639 94.2386 82.8551 94.2386L 9.39762 94.2386C 6.28886 94.2386 3.75887 91.7069 3.75887 88.5961L 3.75887 24.0233C 3.75887 20.9125 6.28886 18.3808 9.39762 18.3808L 30.5573 18.3808L 21.5431 23.397L 10.5724 23.397C 9.53302 23.397 8.69281 24.2395 8.69281 25.2779C 8.69281 26.3162 9.53302 27.1587 10.5724 27.1587L 14.7825 27.1587L 83.4588 27.1587L 88.4939 27.1587L 88.4939 45.6542L 74.749 45.6542C 68.366 45.6542 63.1712 50.8527 63.1712 57.2397L 63.1712 58.0486C 63.1712 64.4359 68.3662 69.6342 74.749 69.6342L 88.4939 69.6342L 88.4939 88.5961ZM 93.1927 65.8707L 92.2531 65.8707L 74.749 65.8707C 70.4374 65.8707 66.93 62.3613 66.93 58.0466L 66.93 57.2377C 66.93 52.9232 70.4371 49.4135 74.749 49.4135L 92.2531 49.4135L 93.1927 49.4135L 93.1927 65.8707ZM 80.5059 57.7966C 80.5059 60.0913 78.6488 61.9493 76.356 61.9493C 74.0629 61.9493 72.2061 60.091 72.2061 57.7966C 72.2061 55.5023 74.0632 53.644 76.356 53.644C 78.6491 53.6437 80.5059 55.5038 80.5059 57.7966Z"/>
<path id="path1_fill" d="M 9.8 4.9C 9.8 7.6062 7.6062 9.8 4.9 9.8C 2.1938 9.8 0 7.6062 0 4.9C 0 2.1938 2.1938 0 4.9 0C 7.6062 0 9.8 2.1938 9.8 4.9Z"/>
</defs>
</svg>
