<svg width="60" height="60" viewBox="0 0 60 60" version="1.1" xmlns="http://www.w3.org/2000/svg" xmlns:xlink="http://www.w3.org/1999/xlink">
<title>icon_twitter_3</title>
<desc>Created using Figma</desc>
<g id="Canvas" transform="translate(-1524 -132)">
<g id="icon_twitter_3">
<g id="Vector">
<use xlink:href="#path0_fill" transform="translate(1524 132)" fill="#55ACEE"/>
</g>
<g id="Vector">
<use xlink:href="#path1_fill" transform="translate(1537.42 150.197)" fill="#FFFFFF"/>
</g>
</g>
</g>
<defs>
<path id="path0_fill" d="M 30 60C 46.5685 60 60 46.5685 60 30C 60 13.4315 46.5685 0 30 0C 13.4315 0 0 13.4315 0 30C 0 46.5685 13.4315 60 30 60Z"/>
<path id="path1_fill" d="M 34.952 3.36269C 33.6664 3.93276 32.2835 4.31834 30.8332 4.49053C 32.314 3.60334 33.4504 2.19954 33.9868 0.524083C 32.6012 1.34604 31.0658 1.94232 29.4331 2.26372C 28.1251 0.87062 26.2614 -6.52806e-08 24.1977 -6.52806e-08C 20.2382 -6.52806e-08 17.0268 3.21134 17.0268 7.17084C 17.0268 7.7329 17.0904 8.27997 17.2134 8.80513C 11.2539 8.50619 5.96973 5.65154 2.43271 1.31181C 1.81557 2.37067 1.46155 3.60334 1.46155 4.91729C 1.46155 7.40454 2.72844 9.60034 4.6515 10.8859C 3.47659 10.849 2.37014 10.5266 1.40379 9.98806C 1.40326 10.0185 1.40326 10.049 1.40326 10.079C 1.40326 13.5534 3.87608 16.4514 7.15587 17.1097C 6.55478 17.2744 5.92 17.3616 5.26703 17.3616C 4.80391 17.3616 4.35524 17.3172 3.91779 17.2338C 4.83012 20.082 7.47781 22.1553 10.6164 22.2136C 8.16179 24.1372 5.07023 25.2833 1.70969 25.2833C 1.13213 25.2833 0.559913 25.2496 3.42723e-07 25.1827C 3.17177 27.2181 6.94196 28.4048 10.9913 28.4048C 24.1811 28.4048 31.3942 17.4782 31.3942 8.00136C 31.3942 7.69065 31.3872 7.38101 31.3733 7.07405C 32.7755 6.06332 33.9911 4.80071 34.952 3.36269Z"/>
</defs>
</svg>
