<svg width="43" height="40" viewBox="0 0 43 40" version="1.1" xmlns="http://www.w3.org/2000/svg" xmlns:xlink="http://www.w3.org/1999/xlink">
<title>icon_basket_2</title>
<desc>Created using Figma</desc>
<g id="Canvas" transform="translate(-1538 45)">
<g id="icon_basket_2">
<g id="Group">
<g id="Group">
<g id="Vector">
<use xlink:href="#path0_fill" transform="translate(1538 -45)" fill="#4D4D4D"/>
</g>
</g>
</g>
<g id="Group">
<g id="Group">
<g id="Vector">
<use xlink:href="#path1_fill" transform="translate(1558 -20.9998)"/>
</g>
</g>
</g>
<g id="Group">
<g id="Group">
<g id="Vector">
<use xlink:href="#path1_fill" transform="translate(1551.33 -20.9998)"/>
</g>
</g>
</g>
<g id="Group">
<g id="Group">
<g id="Vector">
<use xlink:href="#path1_fill" transform="translate(1564.67 -20.9998)"/>
</g>
</g>
</g>
</g>
</g>
<defs>
<path id="path0_fill" d="M 41.3329 10.667L 34.157 10.667L 29.1917 0.736424C 28.8584 0.0777647 28.061 -0.186232 27.4024 0.139097C 26.7437 0.469761 26.477 1.26975 26.805 1.92841L 31.1757 10.667L 11.4905 10.667L 15.8585 1.93108C 16.1892 1.27242 15.9198 0.472427 15.2612 0.141764C 14.6052 -0.183566 13.8025 0.0804313 13.4745 0.736424L 8.50924 10.667L 1.33332 10.667C 0.597327 10.667 0 11.2643 0 12.0003L 0 17.3336C 0 18.0696 0.597327 18.6669 1.33332 18.6669L 2.95997 18.6669L 8.03991 38.9893C 8.18925 39.584 8.72257 40 9.33323 40L 33.333 40C 33.9436 40 34.477 39.584 34.6263 38.9893L 39.7062 18.6669L 41.3329 18.6669C 42.0689 18.6669 42.6662 18.0696 42.6662 17.3336L 42.6662 12.0003C 42.6662 11.2643 42.0689 10.667 41.3329 10.667ZM 32.2903 37.3334L 10.3759 37.3334L 5.70661 18.6669L 36.9596 18.6669L 32.2903 37.3334ZM 39.9996 16.0003L 2.66664 16.0003L 2.66664 13.3336L 39.9996 13.3336L 39.9996 16.0003Z"/>
<path id="path1_fill" d="M 1.33332 -7.73104e-07C 0.597327 -7.73104e-07 0 0.597326 0 1.33332L 0 9.33323C 0 10.0692 0.597327 10.6666 1.33332 10.6666C 2.06931 10.6666 2.66664 10.0692 2.66664 9.33323L 2.66664 1.33332C 2.66664 0.597326 2.06931 -7.73104e-07 1.33332 -7.73104e-07Z"/>
</defs>
</svg>
