<svg width="40" height="40" viewBox="0 0 40 40" version="1.1" xmlns="http://www.w3.org/2000/svg" xmlns:xlink="http://www.w3.org/1999/xlink">
<title>icon_search_3</title>
<desc>Created using Figma</desc>
<g id="Canvas" transform="translate(-1436 46)">
<g id="icon_search_3">
<g id="Vector">
<use xlink:href="#path0_fill" transform="translate(1436 -46)" fill="#C93259"/>
</g>
</g>
</g>
<defs>
<path id="path0_fill" d="M 39.1108 34.7595L 30.8656 26.5147C 32.8526 23.6463 33.8467 20.4486 33.8467 16.9234C 33.8467 14.6317 33.4018 12.44 32.512 10.3488C 31.6228 8.25722 30.4207 6.45442 28.9063 4.94C 27.3919 3.42558 25.5894 2.22352 23.4982 1.33425C 21.4064 0.44472 19.2148 2.19557e-12 16.9232 2.19557e-12C 14.6317 2.19557e-12 12.44 0.44472 10.3488 1.33425C 8.25722 2.22352 6.45442 3.42558 4.94 4.94C 3.42541 6.45442 2.22352 8.25756 1.33416 10.3488C 0.44472 12.4403 0 14.6317 0 16.9234C 0 19.2148 0.44472 21.4058 1.33416 23.4976C 2.22343 25.5889 3.42541 27.3914 4.94 28.9058C 6.45442 30.4207 8.25756 31.6223 10.3488 32.5121C 12.4403 33.4014 14.6317 33.8461 16.9232 33.8461C 20.4492 33.8461 23.6464 32.852 26.5149 30.8651L 34.7601 39.0861C 35.337 39.6949 36.0572 39.9995 36.9233 39.9995C 37.7566 39.9995 38.4782 39.695 39.0867 39.0861C 39.6954 38.4773 40 37.7561 40 36.9228C 40.0003 36.074 39.7038 35.3525 39.1108 34.7595ZM 24.5314 24.5308C 22.4241 26.6384 19.8882 27.6922 16.9232 27.6922C 13.9587 27.6922 11.4228 26.6382 9.3153 24.5308C 7.20781 22.4234 6.1541 19.8879 6.1541 16.9229C 6.1541 13.9583 7.20806 11.422 9.3153 9.31497C 11.4224 7.20738 13.9587 6.15376 16.9232 6.15376C 19.8879 6.15376 22.4238 7.20781 24.5314 9.31497C 26.6391 11.422 27.6928 13.9583 27.6928 16.9229C 27.6928 19.8879 26.6388 22.4234 24.5314 24.5308Z"/>
</defs>
</svg>
