<svg width="116" height="79" viewBox="0 0 116 79" version="1.1" xmlns="http://www.w3.org/2000/svg" xmlns:xlink="http://www.w3.org/1999/xlink">
<title>icon_card_1</title>
<desc>Created using Figma</desc>
<g id="Canvas" transform="translate(-1745 189)">
<g id="icon_card_1">
<g id="Vector">
<use xlink:href="#path0_fill" transform="translate(1761.2 -139.448)" fill="#3E3E3E"/>
</g>
<g id="Vector">
<use xlink:href="#path0_fill" transform="translate(1761.2 -130.581)" fill="#3E3E3E"/>
</g>
<g id="Vector">
<use xlink:href="#path1_fill" transform="translate(1745 -189)" fill="#3E3E3E"/>
</g>
<g id="Vector">
<use xlink:href="#path2_fill" transform="translate(1806.58 -144.708)" fill="#3E3E3E"/>
</g>
</g>
</g>
<defs>
<path id="path0_fill" d="M 1.92218 3.76188L 23.6724 3.76188C 24.7346 3.76188 25.5948 2.92016 25.5948 1.88103C 25.5948 0.841725 24.7346 9.75108e-08 23.6724 9.75108e-08L 1.92218 9.75108e-08C 0.860222 9.75108e-08 -6.52923e-08 0.841725 -6.52923e-08 1.88103C -6.52923e-08 2.92016 0.860222 3.76188 1.92218 3.76188Z"/>
<path id="path1_fill" d="M 110.518 0L 5.47998 0C 2.45868 0 -1.15788e-11 2.44272 -1.15788e-11 5.44552L -1.15788e-11 72.59C -1.15788e-11 75.5937 2.45868 78.0364 5.47998 78.0364L 110.518 78.0364C 113.541 78.0364 116 75.5937 116 72.59L 116 5.44552C 116 2.44272 113.541 0 110.518 0ZM 112.375 72.59C 112.375 73.6064 111.541 74.4346 110.518 74.4346L 5.47998 74.4346C 4.45699 74.4346 3.62504 73.6064 3.62504 72.59L 3.62504 31.8232L 112.375 31.8232L 112.375 72.59ZM 112.375 28.2039L 3.62504 28.2039L 3.62504 17.4165L 112.375 17.4165L 112.375 28.2039ZM 112.375 13.7974L 3.62504 13.7974L 3.62504 5.44552C 3.62504 4.4291 4.45699 3.60173 5.47998 3.60173L 110.518 3.60173C 111.541 3.60173 112.375 4.4291 112.375 5.44552L 112.375 13.7974Z"/>
<path id="path2_fill" d="M 10.9228 21.3761C 14.6927 21.3761 18.0217 19.4979 19.9854 16.6478C 21.9493 19.4979 25.2781 21.3761 29.048 21.3761C 35.0715 21.3761 39.971 16.582 39.971 10.6881C 39.971 4.79409 35.0715 -1.49037e-07 29.048 -1.49037e-07C 25.2781 -1.49037e-07 21.9493 1.87819 19.9854 4.72829C 18.0217 1.87819 14.6927 -1.49037e-07 10.9228 -1.49037e-07C 4.89943 -1.49037e-07 -5.20392e-08 4.79409 -5.20392e-08 10.6881C -5.20392e-08 16.582 4.89943 21.3761 10.9228 21.3761ZM 29.048 3.64057C 33.0199 3.64057 36.2504 6.8014 36.2504 10.6881C 36.2504 14.5747 33.0199 17.7355 29.048 17.7355C 25.076 17.7355 21.8458 14.5747 21.8458 10.6881C 21.8458 6.8014 25.076 3.64057 29.048 3.64057ZM 10.9228 3.64057C 14.8947 3.64057 18.1252 6.8014 18.1252 10.6881C 18.1252 14.5747 14.8947 17.7355 10.9228 17.7355C 6.95083 17.7355 3.72056 14.5747 3.72056 10.6881C 3.72056 6.8014 6.95083 3.64057 10.9228 3.64057Z"/>
</defs>
</svg>
