<svg width="40" height="40" viewBox="0 0 40 40" version="1.1" xmlns="http://www.w3.org/2000/svg" xmlns:xlink="http://www.w3.org/1999/xlink">
<title>icon_call_2</title>
<desc>Created using Figma</desc>
<g id="Canvas" transform="translate(-1342 46)">
<g id="icon_call_2">
<g id="Group">
<g id="Group">
<g id="Vector">
<use xlink:href="#path0_fill" transform="translate(1342 -42.1596)" fill="#C93259"/>
</g>
<g id="Vector">
<use xlink:href="#path1_fill" transform="translate(1361.8 -38.0091)" fill="#C93259"/>
</g>
<g id="Vector">
<use xlink:href="#path2_fill" transform="translate(1362.21 -46)" fill="#C93259"/>
</g>
</g>
</g>
</g>
</g>
<defs>
<path id="path0_fill" d="M 30.411 22.621C 29.1041 21.3308 27.4726 21.3308 26.1741 22.621C 25.1836 23.6032 24.1931 24.5855 23.2192 25.5843C 22.9528 25.859 22.7281 25.9173 22.4034 25.7341C 21.7625 25.3845 21.0799 25.1015 20.464 24.7186C 17.5923 22.9124 15.1867 20.59 13.0558 17.9763C 11.9987 16.6778 11.0581 15.2877 10.4005 13.7229C 10.2673 13.4066 10.2923 13.1985 10.5503 12.9404C 11.5408 11.9832 12.5064 11.001 13.4803 10.0188C 14.8371 8.65366 14.8371 7.05549 13.472 5.68205C 12.6979 4.89961 11.9237 4.13382 11.1496 3.35138C 10.3505 2.5523 9.55977 1.74488 8.75236 0.954121C 7.44552 -0.319424 5.81405 -0.319424 4.51553 0.962445C 3.51667 1.94466 2.55943 2.95184 1.54393 3.9174C 0.603333 4.80805 0.128875 5.89847 0.0289888 7.17202C -0.129164 9.24465 0.378589 11.2008 1.09444 13.1069C 2.55943 17.0524 4.79022 20.5567 7.49546 23.7697C 11.1496 28.1148 15.5113 31.5525 20.6138 34.033C 22.9112 35.1484 25.2918 36.0057 27.8805 36.1473C 29.6618 36.2471 31.21 35.7977 32.4503 34.4076C 33.2993 33.4587 34.2566 32.593 35.1555 31.6857C 36.4873 30.3372 36.4957 28.7058 35.1722 27.3739C 33.5907 25.7841 32.0008 24.2026 30.411 22.621Z"/>
<path id="path1_fill" d="M 9.02303 11.8365L 12.0945 11.3121C 11.6117 8.4903 10.2799 5.93489 8.25723 3.90387C 6.11801 1.76465 3.41277 0.416191 0.432839 2.36577e-15L 3.25149e-07 3.08814C 2.3057 3.41277 4.4033 4.45325 6.05974 6.10969C 7.62462 7.67457 8.64846 9.65564 9.02303 11.8365Z"/>
<path id="path2_fill" d="M 13.418 6.47594C 9.87206 2.92999 5.38552 0.690878 0.432839 0L -1.82897e-07 3.08814C 4.27845 3.68745 8.15735 5.62691 11.2205 8.68175C 14.1255 11.5868 16.0317 15.2576 16.7226 19.2946L 19.7941 18.7702C 18.9866 14.0922 16.7808 9.84709 13.418 6.47594Z"/>
</defs>
</svg>
