<svg width="40" height="40" viewBox="0 0 40 40" version="1.1" xmlns="http://www.w3.org/2000/svg" xmlns:xlink="http://www.w3.org/1999/xlink">
<title>icon_instagram_2</title>
<desc>Created using Figma</desc>
<g id="Canvas" transform="translate(-1412 -45)">
<g id="icon_instagram_2">
<g id="Vector">
<use xlink:href="#path0_fill" transform="translate(1422.59 55.6419)" fill="#CC2699"/>
</g>
<g id="Vector">
<use xlink:href="#path1_fill" transform="translate(1428.42 61.4759)" fill="#CC2699"/>
</g>
<g id="Vector">
<use xlink:href="#path2_fill" transform="translate(1412 45)" fill="#CC2699"/>
</g>
</g>
</g>
<defs>
<path id="path0_fill" d="M 15.3729 -3.73998e-07L 3.45106 -3.73998e-07C 1.54816 -3.73998e-07 3.46798e-07 1.54816 3.46798e-07 3.45106L 3.46798e-07 15.3729C 3.46798e-07 17.2758 1.54816 18.8244 3.45106 18.8244L 15.3729 18.8244C 17.2758 18.8244 18.8244 17.2762 18.8244 15.3729L 18.8244 3.45106C 18.8244 1.54816 17.2762 -3.73998e-07 15.3729 -3.73998e-07ZM 9.41197 15.6091C 5.99523 15.6091 3.21531 12.8292 3.21531 9.41197C 3.21531 5.99523 5.99523 3.21531 9.41197 3.21531C 12.8292 3.21531 15.6091 5.99523 15.6091 9.41197C 15.6091 12.8287 12.8287 15.6091 9.41197 15.6091ZM 15.8083 4.49654C 14.9994 4.49654 14.3417 3.83877 14.3417 3.03037C 14.3417 2.22197 14.9994 1.56421 15.8083 1.56421C 16.6167 1.56421 17.2744 2.22197 17.2744 3.03037C 17.2744 3.83877 16.6167 4.49654 15.8083 4.49654Z"/>
<path id="path1_fill" d="M 3.57851 2.99199e-07C 1.6061 2.99199e-07 -4.35198e-07 1.60521 -4.35198e-07 3.57762C -4.35198e-07 5.55093 1.6061 7.15658 3.57851 7.15658C 5.55182 7.15658 7.15658 5.55093 7.15658 3.57762C 7.15658 1.60565 5.55137 2.99199e-07 3.57851 2.99199e-07Z"/>
<path id="path2_fill" d="M 20 0C 8.95475 0 0 8.95475 0 20C 0 31.0453 8.95475 40 20 40C 31.0453 40 40 31.0453 40 20C 40 8.95475 31.0453 0 20 0ZM 32.0306 26.0148C 32.0306 29.3621 29.3081 32.0845 25.9609 32.0845L 14.0391 32.0845C 10.6923 32.0845 7.96943 29.3621 7.96943 26.0148L 7.96943 14.093C 7.96943 10.7462 10.6923 8.02335 14.0391 8.02335L 25.9609 8.02335C 29.3081 8.02335 32.0306 10.7462 32.0306 14.093L 32.0306 26.0148Z"/>
</defs>
</svg>
