<svg width="40" height="40" viewBox="0 0 40 40" version="1.1" xmlns="http://www.w3.org/2000/svg" xmlns:xlink="http://www.w3.org/1999/xlink">
<title>icon_vkontakte_2</title>
<desc>Created using Figma</desc>
<g id="Canvas" transform="translate(-1342 -45)">
<g id="icon_vkontakte_2">
<g id="Vector">
<use xlink:href="#path0_fill" transform="translate(1342 45)" fill="#4D76A1"/>
</g>
<g id="Vector">
<use xlink:href="#path1_fill" transform="translate(1348.4 58.8527)" fill="#FFFFFF"/>
</g>
</g>
</g>
<defs>
<path id="path0_fill" d="M 20 40C 31.0457 40 40 31.0457 40 20C 40 8.95431 31.0457 0 20 0C 8.95431 0 0 8.95431 0 20C 0 31.0457 8.95431 40 20 40Z"/>
<path id="path1_fill" fill-rule="evenodd" d="M 12.8488 14.9191L 14.4185 14.9191C 14.4185 14.9191 14.8927 14.867 15.1348 14.6061C 15.3576 14.3665 15.3504 13.9166 15.3504 13.9166C 15.3504 13.9166 15.3198 11.8102 16.2974 11.5001C 17.261 11.1945 18.4985 13.5358 19.8101 14.436C 20.802 15.1173 21.5557 14.9679 21.5557 14.9679L 25.0627 14.9191C 25.0627 14.9191 26.8974 14.8061 26.0275 13.3636C 25.9562 13.2456 25.5209 12.2965 23.4199 10.3464C 21.2209 8.30531 21.5154 8.63544 24.1643 5.10484C 25.7776 2.95467 26.4225 1.64197 26.2211 1.07974C 26.0289 0.544244 24.8424 0.685782 24.8424 0.685782L 20.8936 0.710382C 20.8936 0.710382 20.6009 0.670452 20.3838 0.800225C 20.1717 0.927502 20.0351 1.22413 20.0351 1.22413C 20.0351 1.22413 19.4101 2.888 18.5766 4.30302C 16.8182 7.28887 16.1152 7.44645 15.8278 7.26106C 15.1594 6.82896 15.3262 5.52517 15.3262 4.59894C 15.3262 1.70543 15.7651 0.498967 14.4716 0.186657C 14.0424 0.0829095 13.7265 0.0144579 12.6288 0.00340578C 11.2198 -0.0112115 10.0273 0.00768354 9.35202 0.338533C 8.9028 0.558505 8.55626 1.04872 8.76732 1.07688C 9.0283 1.11182 9.6194 1.23625 9.93279 1.663C 10.3374 2.21347 10.3232 3.44987 10.3232 3.44987C 10.3232 3.44987 10.5556 6.85606 9.7802 7.27924C 9.24791 7.56945 8.51776 6.97692 6.95015 4.26809C 6.14691 2.88051 5.54047 1.34677 5.54047 1.34677C 5.54047 1.34677 5.42353 1.06013 5.21497 0.906824C 4.96184 0.721077 4.60817 0.661896 4.60817 0.661896L 0.855812 0.686495C 0.855812 0.686495 0.292512 0.702183 0.0857315 0.947111C -0.0982323 1.16494 0.071114 1.61558 0.071114 1.61558C 0.071114 1.61558 3.00883 8.48856 6.33515 11.9521C 9.38517 15.1277 12.8488 14.9191 12.8488 14.9191Z"/>
</defs>
</svg>
