<svg width="60" height="60" viewBox="0 0 60 60" version="1.1" xmlns="http://www.w3.org/2000/svg" xmlns:xlink="http://www.w3.org/1999/xlink">
<title>icon_vkontakte_3</title>
<desc>Created using Figma</desc>
<g id="Canvas" transform="translate(-1344 -133)">
<g id="icon_vkontakte_3">
<g id="Vector">
<use xlink:href="#path0_fill" transform="translate(1344 133)" fill="#4D76A1"/>
</g>
<g id="Vector">
<use xlink:href="#path1_fill" transform="translate(1353.59 153.779)" fill="#FFFFFF"/>
</g>
</g>
</g>
<defs>
<path id="path0_fill" d="M 30 60C 46.5685 60 60 46.5685 60 30C 60 13.4315 46.5685 0 30 0C 13.4315 0 0 13.4315 0 30C 0 46.5685 13.4315 60 30 60Z"/>
<path id="path1_fill" fill-rule="evenodd" d="M 19.2731 22.3786L 21.6278 22.3786C 21.6278 22.3786 22.339 22.3006 22.7021 21.9091C 23.0364 21.5497 23.0257 20.8748 23.0257 20.8748C 23.0257 20.8748 22.9797 17.7154 24.446 17.2501C 25.8915 16.7918 27.7478 20.3037 29.7152 21.654C 31.203 22.676 32.3335 22.4519 32.3335 22.4519L 37.5941 22.3786C 37.5941 22.3786 40.3461 22.2091 39.0412 20.0454C 38.9343 19.8684 38.2813 18.4448 35.1298 15.5196C 31.8313 12.458 32.2731 12.9532 36.2465 7.65725C 38.6663 4.432 39.6338 2.46295 39.3316 1.6196C 39.0434 0.816366 37.2636 1.02867 37.2636 1.02867L 31.3404 1.06557C 31.3404 1.06557 30.9014 1.00568 30.5757 1.20034C 30.2575 1.39125 30.0527 1.83619 30.0527 1.83619C 30.0527 1.83619 29.1152 4.332 27.8649 6.45454C 25.2274 10.9333 24.1728 11.1697 23.7417 10.8916C 22.739 10.2434 22.9893 8.28776 22.9893 6.8984C 22.9893 2.55814 23.6476 0.748451 21.7074 0.279985C 21.0636 0.124364 20.5898 0.0216868 18.9432 0.00510867C 16.8297 -0.0168172 15.0409 0.0115253 14.028 0.5078C 13.3542 0.837758 12.8344 1.57308 13.151 1.61533C 13.5424 1.66773 14.4291 1.85437 14.8992 2.4945C 15.5062 3.3202 15.4848 5.17481 15.4848 5.17481C 15.4848 5.17481 15.8334 10.2841 14.6703 10.9189C 13.8719 11.3542 12.7766 10.4654 10.4252 6.40213C 9.22036 4.32077 8.31071 2.02015 8.31071 2.02015C 8.31071 2.02015 8.1353 1.59019 7.82245 1.36024C 7.44276 1.08162 6.91226 0.992845 6.91226 0.992845L 1.28372 1.02974C 1.28372 1.02974 0.438769 1.05327 0.128597 1.42067C -0.147348 1.74742 0.106671 2.42338 0.106671 2.42338C 0.106671 2.42338 4.51325 12.7328 9.50273 17.9282C 14.0778 22.6915 19.2731 22.3786 19.2731 22.3786Z"/>
</defs>
</svg>
