<svg width="30" height="30" viewBox="0 0 30 30" version="1.1" xmlns="http://www.w3.org/2000/svg" xmlns:xlink="http://www.w3.org/1999/xlink">
<title>icon_share_2</title>
<desc>Created using Figma</desc>
<g id="Canvas" transform="translate(-1586 112)">
<g id="icon_share_2">
<g id="Vector">
<use xlink:href="#path0_fill" transform="translate(1586 -112)" fill="#4D4D4D"/>
</g>
</g>
</g>
<defs>
<path id="path0_fill" d="M 24.4834 19.0669C 22.7317 19.0669 21.1867 19.8944 20.1772 21.1615L 10.8143 16.4139C 10.9369 15.9606 11.025 15.4922 11.025 14.9993C 11.025 14.4627 10.9204 13.9575 10.7743 13.4659L 20.0959 8.74018C 21.0998 10.0647 22.6849 10.9304 24.4847 10.9304C 27.5336 10.9304 30 8.48489 30 5.46452C 30.0001 2.44687 27.5336 0 24.4848 0C 21.4428 0 18.9737 2.44687 18.9737 5.46445C 18.9737 5.95877 19.0618 6.42845 19.1858 6.88314L 9.8242 11.6308C 8.81341 10.3623 7.26553 9.53213 5.51112 9.53213C 2.46496 9.53213 2.67887e-09 11.9803 2.67887e-09 14.9993C 2.67887e-09 18.0183 2.46502 20.4652 5.51112 20.4652C 7.31373 20.4652 8.89743 19.5967 9.90541 18.2709L 19.2228 22.9967C 19.0768 23.4869 18.9709 23.9962 18.9709 24.5342C 18.9709 27.5531 21.44 30 24.482 30C 27.5309 30 29.9973 27.5531 29.9973 24.5342C 29.9987 21.5125 27.5323 19.0669 24.4834 19.0669Z"/>
</defs>
</svg>
