<svg width="14" height="24" viewBox="0 0 14 24" version="1.1" xmlns="http://www.w3.org/2000/svg" xmlns:xlink="http://www.w3.org/1999/xlink">
<title>icon_left</title>
<desc>Created using Figma</desc>
<g id="Canvas" transform="translate(-1686 -55)">
<g id="icon_left">
<g id="Vector">
<use xlink:href="#path0_fill" transform="matrix(-1 -8.74228e-08 8.74228e-08 -1 1699.09 79)" fill="#010101"/>
<use xlink:href="#path1_fill" transform="matrix(-1 -8.74228e-08 8.74228e-08 -1 1699.09 79)" fill="#010101"/>
<use xlink:href="#path2_fill" transform="matrix(-1 -8.74228e-08 8.74228e-08 -1 1699.09 79)" fill="#010101"/>
<use xlink:href="#path3_fill" transform="matrix(-1 -8.74228e-08 8.74228e-08 -1 1699.09 79)" fill="#010101"/>
<use xlink:href="#path4_fill" transform="matrix(-1 -8.74228e-08 8.74228e-08 -1 1699.09 79)" fill="#010101"/>
<use xlink:href="#path5_fill" transform="matrix(-1 -8.74228e-08 8.74228e-08 -1 1699.09 79)" fill="#010101"/>
<use xlink:href="#path6_fill" transform="matrix(-1 -8.74228e-08 8.74228e-08 -1 1699.09 79)" fill="#010101"/>
<use xlink:href="#path7_fill" transform="matrix(-1 -8.74228e-08 8.74228e-08 -1 1699.09 79)" fill="#010101"/>
<use xlink:href="#path8_fill" transform="matrix(-1 -8.74228e-08 8.74228e-08 -1 1699.09 79)" fill="#010101"/>
<use xlink:href="#path9_fill" transform="matrix(-1 -8.74228e-08 8.74228e-08 -1 1699.09 79)" fill="#010101"/>
<use xlink:href="#path10_fill" transform="matrix(-1 -8.74228e-08 8.74228e-08 -1 1699.09 79)" fill="#010101"/>
</g>
</g>
</g>
<defs>
<path id="path0_fill" d="M 10.9091 10.9091L 13.0909 10.9091L 13.0909 13.0909L 10.9091 13.0909L 10.9091 10.9091Z"/>
<path id="path1_fill" d="M 10.9091 13.0909L 8.72727 13.0909L 8.72727 15.2727L 10.9091 15.2727L 10.9091 13.0909Z"/>
<path id="path2_fill" d="M 8.72727 15.2727L 6.54545 15.2727L 6.54545 17.4545L 8.72727 17.4545L 8.72727 15.2727Z"/>
<path id="path3_fill" d="M 6.54545 17.4545L 4.36364 17.4545L 4.36364 19.6364L 6.54545 19.6364L 6.54545 17.4545Z"/>
<path id="path4_fill" d="M 4.36364 19.6364L 2.18182 19.6364L 2.18182 21.8182L 4.36364 21.8182L 4.36364 19.6364Z"/>
<path id="path5_fill" d="M 2.18182 21.8182L 0 21.8182L 0 24L 2.18182 24L 2.18182 21.8182Z"/>
<path id="path6_fill" d="M 8.72727 8.72727L 10.9091 8.72727L 10.9091 10.9091L 8.72727 10.9091L 8.72727 8.72727Z"/>
<path id="path7_fill" d="M 6.54545 6.54545L 8.72727 6.54545L 8.72727 8.72727L 6.54545 8.72727L 6.54545 6.54545Z"/>
<path id="path8_fill" d="M 4.36364 4.36364L 6.54545 4.36364L 6.54545 6.54545L 4.36364 6.54545L 4.36364 4.36364Z"/>
<path id="path9_fill" d="M 2.18182 2.18182L 4.36364 2.18182L 4.36364 4.36364L 2.18182 4.36364L 2.18182 2.18182Z"/>
<path id="path10_fill" d="M 0 0L 2.18182 0L 2.18182 2.18182L 0 2.18182L 0 0Z"/>
</defs>
</svg>
