<svg width="250" height="54" viewBox="0 0 250 54" version="1.1" xmlns="http://www.w3.org/2000/svg" xmlns:xlink="http://www.w3.org/1999/xlink">
<title>logo_floreal_2</title>
<desc>Created using Figma</desc>
<g id="Canvas" transform="translate(-1331 220)">
<g id="logo_floreal_2">
<g id="Vector">
<use xlink:href="#path0_fill" transform="translate(1420.55 -216.318)" fill="#C93259"/>
<use xlink:href="#path1_fill" transform="translate(1420.55 -216.318)" fill="#C93259"/>
<use xlink:href="#path2_fill" transform="translate(1420.55 -216.318)" fill="#C93259"/>
<use xlink:href="#path3_fill" transform="translate(1420.55 -216.318)" fill="#C93259"/>
<use xlink:href="#path4_fill" transform="translate(1420.55 -216.318)" fill="#C93259"/>
<use xlink:href="#path5_fill" transform="translate(1420.55 -216.318)" fill="#C93259"/>
<use xlink:href="#path6_fill" transform="translate(1420.55 -216.318)" fill="#C93259"/>
<use xlink:href="#path7_fill" transform="translate(1420.55 -216.318)" fill="#C93259"/>
<use xlink:href="#path8_fill" transform="translate(1420.55 -216.318)" fill="#C93259"/>
<use xlink:href="#path9_fill" transform="translate(1420.55 -216.318)" fill="#C93259"/>
<use xlink:href="#path10_fill" transform="translate(1420.55 -216.318)" fill="#C93259"/>
<use xlink:href="#path11_fill" transform="translate(1420.55 -216.318)" fill="#C93259"/>
</g>
<g id="element">
<g id="XMLID 243">
<use xlink:href="#path12_fill" transform="translate(1377.32 -191.984)" fill="#75BF4F"/>
</g>
<g id="XMLID 244">
<use xlink:href="#path13_fill" transform="translate(1331 -191.984)" fill="#75BF4F"/>
</g>
<g id="XMLID 245">
<use xlink:href="#path14_fill" transform="translate(1378.21 -217.867)" fill="#FEC30F"/>
</g>
<g id="XMLID 246">
<use xlink:href="#path15_fill" transform="translate(1341.96 -217.867)" fill="#FEC30F"/>
</g>
<g id="XMLID 247">
<use xlink:href="#path16_fill" transform="translate(1357.77 -220)" fill="#C93259"/>
</g>
</g>
</g>
</g>
<defs>
<path id="path0_fill" d="M 3.92532 42.5931C 3.92532 42.7463 3.86476 42.875 3.74366 42.9804C 3.62257 43.0858 3.48215 43.1384 3.32111 43.1384L 0.573281 43.1384C 0.190671 43.1384 0 42.9571 0 42.5931L 0 0.632323C 0 0.268374 0.190671 0.0870027 0.573281 0.0870027L 11.6844 0.0870027C 12.0671 0.0870027 12.2577 0.268374 12.2577 0.632323L 12.2577 3.24614C 12.2577 3.39932 12.2023 3.53289 12.0915 3.64808C 11.9807 3.76327 11.8455 3.82085 11.6844 3.82085L 3.92532 3.82085L 3.92532 15.0224L 9.81261 15.0224C 9.97364 15.0224 10.1141 15.08 10.2352 15.1952C 10.3563 15.3104 10.4168 15.444 10.4168 15.5971L 10.4168 18.1816C 10.4168 18.3347 10.3563 18.4683 10.2352 18.5835C 10.1141 18.6987 9.97364 18.7563 9.81261 18.7563L 3.92532 18.7563L 3.92532 42.5931Z"/>
<path id="path1_fill" d="M 20.1392 42.5637C 20.1392 42.7169 20.0787 42.8505 19.9576 42.9657C 19.8365 43.0808 19.6961 43.1384 19.535 43.1384L 16.7872 43.1384C 16.6262 43.1384 16.4909 43.0808 16.3801 42.9657C 16.2693 42.8505 16.2139 42.7169 16.2139 42.5637L 16.2139 0.545321C 16.2139 0.181371 16.4046 0 16.7872 0L 19.535 0C 19.6961 0 19.8365 0.0526903 19.9576 0.158076C 20.0787 0.263463 20.1392 0.392143 20.1392 0.545321L 20.1392 42.5637Z"/>
<path id="path2_fill" d="M 29.2266 10.3965C 30.0111 10.3965 30.757 10.5398 31.4604 10.8278C 32.1638 11.1158 32.7783 11.5079 33.3026 12.0054C 33.8269 12.503 34.2392 13.0826 34.5406 13.7431C 34.8421 14.4036 34.9941 15.1168 34.9941 15.8827L 34.9941 37.6241C 34.9941 38.39 34.8434 39.108 34.5406 39.7784C 34.2379 40.4487 33.8256 41.032 33.3026 41.5307C 32.7796 42.0295 32.1651 42.4216 31.4604 42.7083C 30.7557 42.9951 30.0124 43.1385 29.2266 43.1385C 28.5013 43.1385 27.8069 43.0135 27.1435 42.7647C 26.0652 42.3628 25.1828 41.7072 24.4923 40.7979C 23.8043 39.8886 23.4591 38.8311 23.4591 37.6241L 23.4591 15.8827C 23.4591 15.308 23.548 14.7528 23.7283 14.2173C 23.9087 13.6818 24.1625 13.1929 24.4923 12.7529C 24.8221 12.313 25.2111 11.9197 25.6607 11.5753C 26.1103 11.231 26.6037 10.9626 27.1435 10.7715C 27.7271 10.5215 28.4214 10.3965 29.2266 10.3965ZM 31.2801 15.8851C 31.2801 15.3484 31.0829 14.8889 30.6874 14.5053C 30.292 14.1218 29.8102 13.9294 29.242 13.9294C 28.6533 13.9294 28.1625 14.1218 27.767 14.5053C 27.3715 14.8889 27.1744 15.3484 27.1744 15.8851L 27.1744 37.651C 27.1744 38.2074 27.3715 38.6718 27.767 39.0456C 28.1625 39.4193 28.6533 39.6068 29.242 39.6068C 29.8102 39.6068 30.292 39.4205 30.6874 39.0456C 31.0829 38.6718 31.2801 38.2074 31.2801 37.651L 31.2801 15.8851Z"/>
<path id="path3_fill" d="M 47.8264 12.3216L 46.0151 14.0164C 45.8747 14.1499 45.7136 14.1977 45.532 14.1597L 45.1094 13.9588C 44.8479 13.8252 44.5259 13.7578 44.1433 13.7578C 43.579 13.7578 43.0959 13.949 42.694 14.3325C 42.292 14.7161 42.0898 15.1842 42.0898 15.7393L 42.0898 41.2439L 42.0601 42.6801L 42.0601 42.7377C 42.0202 42.8333 41.9506 42.9191 41.8502 42.9963C 41.7497 43.0735 41.6402 43.1115 41.5217 43.1115L 38.9452 43.1115C 38.6463 43.1115 38.4659 42.9865 38.4067 42.7377C 38.3873 42.7181 38.377 42.6703 38.377 42.5944L 38.377 10.7714C 38.377 10.4075 38.5664 10.2261 38.9452 10.2261L 41.5217 10.2261C 41.6415 10.2261 41.751 10.2641 41.8502 10.3413C 41.9494 10.4185 42.0202 10.5043 42.0601 10.5999C 42.4015 10.4847 42.7442 10.394 43.0856 10.3266C 43.427 10.2592 43.78 10.2261 44.142 10.2261C 44.8672 10.2261 45.5513 10.3511 46.1954 10.5999C 46.7996 10.8107 47.3433 11.1072 47.8264 11.4908L 47.8869 11.519C 48.1291 11.7873 48.1188 12.0459 47.8573 12.2946L 47.8264 12.3216Z"/>
<path id="path4_fill" d="M 53.0192 27.4286L 53.0192 37.6486C 53.0192 38.2049 53.2163 38.6706 53.6118 39.0456C 54.0073 39.4193 54.4891 39.6068 55.0573 39.6068C 55.6447 39.6068 56.1368 39.4205 56.5323 39.0468C 56.9278 38.673 57.1249 38.2086 57.1249 37.6535L 57.1249 30.3585C 57.1249 30.0142 57.3143 29.8414 57.693 29.8414L 60.2695 29.8414C 60.5285 29.8414 60.7088 29.9566 60.808 30.1858C 60.808 30.2237 60.8131 30.2532 60.8235 30.2715C 60.8338 30.2899 60.8389 30.3193 60.8389 30.3573L 60.8389 37.6522C 60.8389 38.2453 60.7436 38.8103 60.5542 39.3446C 60.3648 39.8801 60.1046 40.369 59.7761 40.8151C 59.4463 41.2611 59.056 41.6496 58.6077 41.9817C 58.1594 42.3137 57.6647 42.5748 57.1262 42.7647C 56.4563 43.0135 55.7671 43.1384 55.0585 43.1384C 54.35 43.1384 53.6595 43.0135 52.9909 42.7647C 51.9126 42.3628 51.0302 41.7072 50.3397 40.7979C 49.6517 39.8886 49.3065 38.8311 49.3065 37.6241L 49.3065 15.8532C 49.3065 15.2785 49.3954 14.7234 49.5757 14.1879C 49.7561 13.6524 50.0099 13.1634 50.3397 12.7235C 50.6695 12.2836 51.0585 11.8902 51.5081 11.5459C 51.9577 11.2016 52.4511 10.9332 52.9909 10.742C 53.5783 10.4933 54.2688 10.3683 55.0585 10.3683C 55.7877 10.3683 56.4782 10.4835 57.1262 10.7126C 58.2044 11.1342 59.0921 11.7996 59.7916 12.7088C 60.4898 13.6181 60.8389 14.667 60.8389 15.8532L 60.8389 26.882C 60.8389 26.9972 60.799 27.1026 60.7178 27.1982C 60.6367 27.2938 60.5465 27.3612 60.446 27.3992C 60.4061 27.3992 60.3752 27.4041 60.3558 27.4139C 60.3365 27.4237 60.3056 27.4286 60.2656 27.4286L 53.0192 27.4286ZM 53.0192 23.8957L 57.1262 23.8957L 57.1262 15.8594C 57.1262 15.3214 56.9291 14.8607 56.5336 14.4771C 56.1381 14.0935 55.646 13.9012 55.0585 13.9012C 54.4904 13.9012 54.0086 14.0935 53.6131 14.4771C 53.2176 14.8607 53.0205 15.3214 53.0205 15.8594L 53.0205 23.8957L 53.0192 23.8957Z"/>
<path id="path5_fill" d="M 69.9572 10.3683C 70.7623 10.3683 71.5121 10.5117 72.2065 10.7996C 72.9008 11.0876 73.5102 11.4797 74.0332 11.9773C 74.5562 12.4748 74.9697 13.0593 75.2712 13.7296C 75.5726 14.3999 75.7247 15.1082 75.7247 15.8545L 75.7247 42.5649C 75.7247 42.9289 75.543 43.1103 75.181 43.1103L 72.5543 43.1103C 72.2928 43.1103 72.1214 42.9853 72.0416 42.7365C 71.6989 42.8517 71.3575 42.9424 71.0148 43.0098C 70.6721 43.0772 70.3205 43.1103 69.9585 43.1103C 69.5965 43.1103 69.2435 43.0772 68.9021 43.0098C 68.5607 42.9424 68.218 42.8517 67.8754 42.7365C 66.7881 42.3346 65.903 41.679 65.2177 40.7697C 64.5323 39.8605 64.191 38.8029 64.191 37.5959L 64.191 25.5047L 64.191 15.8545C 64.191 15.2798 64.2811 14.7247 64.4628 14.1891C 64.6444 13.6536 64.8956 13.1647 65.2177 12.7248C 65.5398 12.2848 65.9275 11.8915 66.3797 11.5471C 66.8319 11.2028 67.3304 10.9344 67.8741 10.7432C 68.4783 10.492 69.1726 10.3683 69.9572 10.3683ZM 69.9572 39.5774C 70.5407 39.5774 71.029 39.3911 71.4219 39.0161C 71.8148 38.6412 72.0107 38.1779 72.0107 37.6216L 72.0107 15.8557C 72.0107 15.319 71.8148 14.8594 71.4219 14.4759C 71.029 14.0923 70.5407 13.8999 69.9572 13.8999C 69.3929 13.8999 68.9098 14.0923 68.5079 14.4759C 68.1047 14.8594 67.9037 15.319 67.9037 15.8557L 67.9037 37.6216C 67.9037 38.1779 68.1047 38.6424 68.5079 39.0161C 68.9111 39.3899 69.3942 39.5774 69.9572 39.5774Z"/>
<path id="path6_fill" d="M 82.9711 42.5637C 82.9711 42.7169 82.9105 42.8505 82.7894 42.9657C 82.6683 43.0808 82.5279 43.1384 82.3669 43.1384L 79.619 43.1384C 79.458 43.1384 79.3228 43.0808 79.212 42.9657C 79.1012 42.8505 79.0458 42.7169 79.0458 42.5637L 79.0458 0.545321C 79.0458 0.181371 79.2364 0 79.619 0L 82.3669 0C 82.5279 0 82.6683 0.0526903 82.7894 0.158076C 82.9105 0.263463 82.9711 0.392143 82.9711 0.545321L 82.9711 42.5637Z"/>
<path id="path7_fill" d="M 86.6246 28.29C 86.403 28.29 86.1866 28.1895 85.9753 27.9886C 85.764 27.7876 85.6584 27.5817 85.6584 27.371L 85.6584 25.7914C 85.6584 25.5806 85.764 25.3748 85.9753 25.1738C 86.1866 24.9728 86.403 24.8723 86.6246 24.8723L 100.695 24.8723C 100.916 24.8723 101.133 24.9728 101.344 25.1738C 101.555 25.3748 101.661 25.5806 101.661 25.7914L 101.661 27.371C 101.661 27.5817 101.555 27.7876 101.344 27.9886C 101.133 28.1895 100.916 28.29 100.695 28.29L 86.6246 28.29Z"/>
<path id="path8_fill" d="M 115.731 19.3579C 115.731 19.4915 115.681 19.6067 115.581 19.7023C 115.48 19.7979 115.349 19.8457 115.188 19.8457L 112.591 19.8457C 112.208 19.8457 112.017 19.6643 112.017 19.3004L 112.017 15.8532C 112.017 15.3165 111.821 14.857 111.429 14.4746C 111.036 14.0923 110.558 13.8999 109.995 13.8999C 109.411 13.8999 108.918 14.0911 108.516 14.4746C 108.114 14.8582 107.912 15.3177 107.912 15.8532L 107.912 22.4595C 107.912 22.9962 108.113 23.4558 108.516 23.8381C 108.919 24.2204 109.411 24.4128 109.995 24.4128C 110.699 24.4128 111.373 24.528 112.017 24.7572C 112.862 25.0635 113.588 25.5328 114.192 26.1639C 114.675 26.6614 115.052 27.2264 115.324 27.8587C 115.596 28.491 115.731 29.1699 115.731 29.8978L 115.731 37.6522C 115.731 38.2453 115.641 38.8103 115.459 39.347C 115.278 39.8837 115.021 40.3714 114.689 40.8114C 114.357 41.2513 113.964 41.6447 113.512 41.989C 113.059 42.3333 112.561 42.6017 112.017 42.7929C 111.373 43.0233 110.699 43.1372 109.995 43.1372C 109.269 43.1372 108.575 43.022 107.912 42.7929C 106.824 42.3909 105.934 41.7354 105.24 40.8261C 104.545 39.9168 104.198 38.8593 104.198 37.6522L 104.198 32.655C 104.198 32.3106 104.388 32.1378 104.771 32.1378L 107.368 32.1378C 107.73 32.1378 107.912 32.3106 107.912 32.655L 107.912 37.6522C 107.912 38.189 108.113 38.6485 108.516 39.0308C 108.919 39.4132 109.411 39.6056 109.995 39.6056C 110.559 39.6056 111.037 39.4144 111.429 39.0308C 111.82 38.6473 112.017 38.1877 112.017 37.6522L 112.017 29.8978C 112.017 29.3427 111.821 28.8782 111.429 28.5045C 111.036 28.1307 110.558 27.9445 109.995 27.9445C 109.269 27.9445 108.575 27.8293 107.912 27.6001C 107.086 27.2938 106.362 26.8146 105.737 26.1639C 105.275 25.6664 104.902 25.1064 104.62 24.4839C 104.338 23.8614 104.198 23.1862 104.198 22.4595L 104.198 15.8532C 104.198 14.6658 104.545 13.6181 105.24 12.7088C 105.934 11.7996 106.824 11.1342 107.912 10.7126C 108.576 10.4822 109.271 10.3683 109.995 10.3683C 110.699 10.3683 111.373 10.4835 112.017 10.7126C 113.105 11.1146 113.995 11.7702 114.689 12.6794C 115.383 13.5887 115.731 14.6462 115.731 15.8532L 115.731 19.3579Z"/>
<path id="path9_fill" d="M 130.647 42.6213C 130.647 42.9657 130.457 43.1385 130.079 43.1385L 127.502 43.1385C 127.202 43.1385 127.021 43.0233 126.964 42.7941C 126.964 42.7561 126.958 42.7267 126.948 42.7083C 126.938 42.69 126.933 42.6605 126.933 42.6226L 126.933 15.9121C 126.933 15.3753 126.738 14.9158 126.348 14.5335C 125.957 14.1499 125.473 13.9588 124.895 13.9588L 122.827 13.9588L 122.827 42.6226C 122.827 42.9669 122.634 43.1397 122.249 43.1397L 119.631 43.1397C 119.367 43.1397 119.194 43.0441 119.113 42.8529L 119.113 0.575956C 119.215 0.365183 119.387 0.259803 119.631 0.259803L 122.249 0.259803C 122.533 0.259803 122.716 0.384786 122.797 0.633547C 122.818 0.653153 122.827 0.710756 122.827 0.806339L 122.827 10.4283L 124.896 10.4283C 125.615 10.4283 126.294 10.5435 126.934 10.7727L 126.964 10.8008C 127.782 11.0876 128.499 11.5569 129.118 12.2076C 129.597 12.7052 129.975 13.2897 130.255 13.96C 130.517 14.5923 130.648 15.243 130.648 15.9133L 130.648 42.6213L 130.647 42.6213Z"/>
<path id="path10_fill" d="M 139.765 10.3965C 140.549 10.3965 141.295 10.5398 141.999 10.8278C 142.702 11.1158 143.317 11.5079 143.841 12.0054C 144.365 12.503 144.777 13.0826 145.079 13.7431C 145.38 14.4036 145.532 15.1168 145.532 15.8827L 145.532 37.6241C 145.532 38.39 145.382 39.108 145.079 39.7784C 144.776 40.4487 144.364 41.032 143.841 41.5307C 143.318 42.0295 142.703 42.4216 141.999 42.7083C 141.294 42.9951 140.549 43.1385 139.765 43.1385C 139.04 43.1385 138.345 43.0135 137.682 42.7647C 136.604 42.3628 135.721 41.7072 135.031 40.7979C 134.343 39.8886 133.997 38.8311 133.997 37.6241L 133.997 15.8827C 133.997 15.308 134.086 14.7528 134.267 14.2173C 134.447 13.6818 134.701 13.1929 135.031 12.7529C 135.36 12.313 135.749 11.9197 136.199 11.5753C 136.649 11.231 137.142 10.9626 137.682 10.7715C 138.265 10.5215 138.96 10.3965 139.765 10.3965ZM 141.818 15.8851C 141.818 15.3484 141.621 14.8889 141.226 14.5053C 140.83 14.1218 140.348 13.9294 139.78 13.9294C 139.192 13.9294 138.701 14.1218 138.305 14.5053C 137.91 14.8889 137.713 15.3484 137.713 15.8851L 137.713 37.651C 137.713 38.2074 137.91 38.6718 138.305 39.0456C 138.701 39.4193 139.192 39.6068 139.78 39.6068C 140.348 39.6068 140.83 39.4205 141.226 39.0456C 141.621 38.6718 141.818 38.2074 141.818 37.651L 141.818 15.8851Z"/>
<path id="path11_fill" d="M 160.448 37.6522C 160.448 38.3226 160.316 38.9733 160.055 39.6056C 159.775 40.3335 159.346 40.9744 158.768 41.5295C 158.189 42.0846 157.521 42.4963 156.763 42.7647C 156.439 42.8983 156.099 42.9951 155.744 43.0515C 155.39 43.1078 155.029 43.1372 154.665 43.1372L 152.627 43.1372L 152.627 49.8011C 152.627 49.839 152.622 49.8685 152.611 49.8868C 152.601 49.9052 152.596 49.9248 152.596 49.9444C 152.515 50.1932 152.336 50.3182 152.057 50.3182L 149.481 50.3182C 149.102 50.3182 148.913 50.1454 148.913 49.8011L 148.913 10.9136C 148.913 10.818 148.923 10.7604 148.942 10.7408C 148.982 10.6452 149.052 10.5594 149.152 10.4822C 149.253 10.405 149.362 10.3671 149.482 10.3671L 154.665 10.3671C 155.394 10.3671 156.094 10.4921 156.763 10.7408C 157.521 11.0276 158.189 11.4442 158.768 11.9907C 159.346 12.5361 159.775 13.1733 160.055 13.9012C 160.176 14.2271 160.271 14.5421 160.342 14.8484C 160.413 15.1548 160.448 15.4807 160.448 15.8251L 160.448 37.6522ZM 156.734 15.8251C 156.734 15.2883 156.537 14.8337 156.141 14.4612C 155.746 14.0874 155.254 13.9012 154.666 13.9012L 152.628 13.9012L 152.628 39.6068L 154.666 39.6068C 155.254 39.6068 155.746 39.4156 156.141 39.0321C 156.537 38.6485 156.734 38.189 156.734 37.6535L 156.734 15.8251Z"/>
<path id="path12_fill" d="M 20.233 3.08454e-07C 19.6307 1.68715 18.904 3.36166 17.9903 4.98737C 13.4189 13.1223 5.78028 18.0353 2.09438e-06 20.7808C 1.29521 20.9505 2.65109 21.0751 4.07911 21.0751C 7.06798 21.0751 10.2629 20.61 13.3089 19.2884C 23.6119 14.8143 28.3081 2.23389 28.3081 2.23389C 28.3081 2.23389 24.9352 0.740526 20.233 3.08454e-07Z"/>
<path id="path13_fill" d="M 10.3177 4.98469C 9.40564 3.35913 8.67769 1.68573 8.07642 1.4266e-06C 3.37291 0.740369 0 2.2339 0 2.2339C 0 2.2339 4.69478 14.8143 14.9992 19.2884C 18.044 20.6098 21.2389 21.0751 24.2291 21.0751C 25.6571 21.0751 27.0142 20.9505 28.3093 20.7808C 22.5278 18.0353 14.8895 13.121 10.3177 4.98469Z"/>
<path id="path14_fill" d="M -1.45859e-06 40.2078C 4.47541 37.6585 9.45313 33.8014 12.6079 28.187C 19.4927 15.9245 15.0503 1.44588e-07 15.0503 1.44588e-07C 15.0503 1.44588e-07 8.56663 1.66078 2.11324 6.11356C 4.19477 10.4056 5.84232 15.5837 5.84232 21.2284C 5.84232 28.696 2.95838 35.3464 -1.45859e-06 40.2078Z"/>
<path id="path15_fill" d="M 16.4605 40.2078C 13.502 35.3464 10.618 28.696 10.618 21.2284C 10.618 15.5837 12.2656 10.4056 14.3471 6.11356C 7.89373 1.66078 1.41001 1.44588e-07 1.41001 1.44588e-07C 1.41001 1.44588e-07 -3.03216 15.9247 3.85276 28.187C 7.00738 33.8014 11.9853 37.6585 16.4605 40.2078Z"/>
<path id="path16_fill" d="M 10.5492 -3.66289e-07C 10.5492 -3.66289e-07 1.86998e-08 10.4585 1.86998e-08 23.3619C 1.86998e-08 36.2629 10.5492 46.7225 10.5492 46.7225C 10.5492 46.7225 21.0975 36.263 21.0975 23.3619C 21.0975 10.4585 10.5492 -3.66289e-07 10.5492 -3.66289e-07Z"/>
</defs>
</svg>
